<svg width="175" height="175" viewBox="0 0 175 175" fill="none" xmlns="http://www.w3.org/2000/svg">
<rect x="0.5" y="0.5" width="174" height="174" rx="4.5" fill="white" stroke="#C1BBEB" stroke-dasharray="10 10"/>
<path d="M29.0525 75.242C30.1165 75.242 31.0359 75.4427 31.8105 75.844C32.5945 76.236 33.1919 76.8007 33.6025 77.538C34.0225 78.2753 34.2325 79.1433 34.2325 80.142C34.2325 81.1407 34.0225 82.0087 33.6025 82.746C33.1919 83.474 32.5945 84.034 31.8105 84.426C31.0359 84.8087 30.1165 85 29.0525 85H26.0145V75.242H29.0525ZM29.0525 83.95C30.3125 83.95 31.2739 83.6187 31.9365 82.956C32.5992 82.284 32.9305 81.346 32.9305 80.142C32.9305 78.9287 32.5945 77.9813 31.9225 77.3C31.2599 76.6187 30.3032 76.278 29.0525 76.278H27.2885V83.95H29.0525ZM37.187 78.574C37.411 78.1353 37.7283 77.7947 38.139 77.552C38.559 77.3093 39.0676 77.188 39.665 77.188V78.504H39.329C37.901 78.504 37.187 79.2787 37.187 80.828V85H35.913V77.328H37.187V78.574ZM40.6596 81.136C40.6596 80.352 40.8183 79.666 41.1356 79.078C41.453 78.4807 41.887 78.0187 42.4376 77.692C42.9976 77.3653 43.6183 77.202 44.2996 77.202C44.9716 77.202 45.555 77.3467 46.0496 77.636C46.5443 77.9253 46.913 78.2893 47.1556 78.728V77.328H48.4436V85H47.1556V83.572C46.9036 84.02 46.5256 84.3933 46.0216 84.692C45.527 84.9813 44.9483 85.126 44.2856 85.126C43.6043 85.126 42.9883 84.958 42.4376 84.622C41.887 84.286 41.453 83.8147 41.1356 83.208C40.8183 82.6013 40.6596 81.9107 40.6596 81.136ZM47.1556 81.15C47.1556 80.5713 47.039 80.0673 46.8056 79.638C46.5723 79.2087 46.255 78.882 45.8536 78.658C45.4616 78.4247 45.0276 78.308 44.5516 78.308C44.0756 78.308 43.6416 78.42 43.2496 78.644C42.8576 78.868 42.545 79.1947 42.3116 79.624C42.0783 80.0533 41.9616 80.5573 41.9616 81.136C41.9616 81.724 42.0783 82.2373 42.3116 82.676C42.545 83.1053 42.8576 83.4367 43.2496 83.67C43.6416 83.894 44.0756 84.006 44.5516 84.006C45.0276 84.006 45.4616 83.894 45.8536 83.67C46.255 83.4367 46.5723 83.1053 46.8056 82.676C47.039 82.2373 47.1556 81.7287 47.1556 81.15ZM53.7606 77.202C54.4232 77.202 55.0019 77.3467 55.4966 77.636C56.0006 77.9253 56.3739 78.2893 56.6166 78.728V77.328H57.9046V85.168C57.9046 85.868 57.7552 86.4887 57.4566 87.03C57.1579 87.5807 56.7286 88.01 56.1686 88.318C55.6179 88.626 54.9739 88.78 54.2366 88.78C53.2286 88.78 52.3886 88.542 51.7166 88.066C51.0446 87.59 50.6479 86.9413 50.5266 86.12H51.7866C51.9266 86.5867 52.2159 86.96 52.6546 87.24C53.0932 87.5293 53.6206 87.674 54.2366 87.674C54.9366 87.674 55.5059 87.4547 55.9446 87.016C56.3926 86.5773 56.6166 85.9613 56.6166 85.168V83.558C56.3646 84.006 55.9912 84.3793 55.4966 84.678C55.0019 84.9767 54.4232 85.126 53.7606 85.126C53.0792 85.126 52.4586 84.958 51.8986 84.622C51.3479 84.286 50.9139 83.8147 50.5966 83.208C50.2792 82.6013 50.1206 81.9107 50.1206 81.136C50.1206 80.352 50.2792 79.666 50.5966 79.078C50.9139 78.4807 51.3479 78.0187 51.8986 77.692C52.4586 77.3653 53.0792 77.202 53.7606 77.202ZM56.6166 81.15C56.6166 80.5713 56.4999 80.0673 56.2666 79.638C56.0332 79.2087 55.7159 78.882 55.3146 78.658C54.9226 78.4247 54.4886 78.308 54.0126 78.308C53.5366 78.308 53.1026 78.42 52.7106 78.644C52.3186 78.868 52.0059 79.1947 51.7726 79.624C51.5392 80.0533 51.4226 80.5573 51.4226 81.136C51.4226 81.724 51.5392 82.2373 51.7726 82.676C52.0059 83.1053 52.3186 83.4367 52.7106 83.67C53.1026 83.894 53.5366 84.006 54.0126 84.006C54.4886 84.006 54.9226 83.894 55.3146 83.67C55.7159 83.4367 56.0332 83.1053 56.2666 82.676C56.4999 82.2373 56.6166 81.7287 56.6166 81.15ZM63.3139 81.136C63.3139 80.352 63.4726 79.666 63.7899 79.078C64.1072 78.4807 64.5412 78.0187 65.0919 77.692C65.6519 77.3653 66.2726 77.202 66.9539 77.202C67.6259 77.202 68.2092 77.3467 68.7039 77.636C69.1986 77.9253 69.5672 78.2893 69.8099 78.728V77.328H71.0979V85H69.8099V83.572C69.5579 84.02 69.1799 84.3933 68.6759 84.692C68.1812 84.9813 67.6026 85.126 66.9399 85.126C66.2586 85.126 65.6426 84.958 65.0919 84.622C64.5412 84.286 64.1072 83.8147 63.7899 83.208C63.4726 82.6013 63.3139 81.9107 63.3139 81.136ZM69.8099 81.15C69.8099 80.5713 69.6932 80.0673 69.4599 79.638C69.2266 79.2087 68.9092 78.882 68.5079 78.658C68.1159 78.4247 67.6819 78.308 67.2059 78.308C66.7299 78.308 66.2959 78.42 65.9039 78.644C65.5119 78.868 65.1992 79.1947 64.9659 79.624C64.7326 80.0533 64.6159 80.5573 64.6159 81.136C64.6159 81.724 64.7326 82.2373 64.9659 82.676C65.1992 83.1053 65.5119 83.4367 65.9039 83.67C66.2959 83.894 66.7299 84.006 67.2059 84.006C67.6819 84.006 68.1159 83.894 68.5079 83.67C68.9092 83.4367 69.2266 83.1053 69.4599 82.676C69.6932 82.2373 69.8099 81.7287 69.8099 81.15ZM76.9889 77.188C77.9222 77.188 78.6782 77.4727 79.2569 78.042C79.8355 78.602 80.1249 79.414 80.1249 80.478V85H78.8649V80.66C78.8649 79.8947 78.6735 79.3113 78.2909 78.91C77.9082 78.4993 77.3855 78.294 76.7229 78.294C76.0509 78.294 75.5142 78.504 75.1129 78.924C74.7209 79.344 74.5249 79.9553 74.5249 80.758V85H73.2509V77.328H74.5249V78.42C74.7769 78.028 75.1175 77.7247 75.5469 77.51C75.9855 77.2953 76.4662 77.188 76.9889 77.188ZM81.7299 81.136C81.7299 80.352 81.8886 79.666 82.2059 79.078C82.5233 78.4807 82.9573 78.0187 83.5079 77.692C84.0679 77.3653 84.6933 77.202 85.3839 77.202C85.9813 77.202 86.5366 77.342 87.0499 77.622C87.5633 77.8927 87.9553 78.252 88.2259 78.7V74.64H89.5139V85H88.2259V83.558C87.9739 84.0153 87.6006 84.3933 87.1059 84.692C86.6113 84.9813 86.0326 85.126 85.3699 85.126C84.6886 85.126 84.0679 84.958 83.5079 84.622C82.9573 84.286 82.5233 83.8147 82.2059 83.208C81.8886 82.6013 81.7299 81.9107 81.7299 81.136ZM88.2259 81.15C88.2259 80.5713 88.1093 80.0673 87.8759 79.638C87.6426 79.2087 87.3253 78.882 86.9239 78.658C86.5319 78.4247 86.0979 78.308 85.6219 78.308C85.1459 78.308 84.7119 78.42 84.3199 78.644C83.9279 78.868 83.6153 79.1947 83.3819 79.624C83.1486 80.0533 83.0319 80.5573 83.0319 81.136C83.0319 81.724 83.1486 82.2373 83.3819 82.676C83.6153 83.1053 83.9279 83.4367 84.3199 83.67C84.7119 83.894 85.1459 84.006 85.6219 84.006C86.0979 84.006 86.5319 83.894 86.9239 83.67C87.3253 83.4367 87.6426 83.1053 87.8759 82.676C88.1093 82.2373 88.2259 81.7287 88.2259 81.15ZM94.9233 81.136C94.9233 80.352 95.082 79.666 95.3993 79.078C95.7166 78.4807 96.1506 78.0187 96.7013 77.692C97.2613 77.3653 97.8866 77.202 98.5773 77.202C99.1746 77.202 99.73 77.342 100.243 77.622C100.757 77.8927 101.149 78.252 101.419 78.7V74.64H102.707V85H101.419V83.558C101.167 84.0153 100.794 84.3933 100.299 84.692C99.8046 84.9813 99.226 85.126 98.5633 85.126C97.882 85.126 97.2613 84.958 96.7013 84.622C96.1506 84.286 95.7166 83.8147 95.3993 83.208C95.082 82.6013 94.9233 81.9107 94.9233 81.136ZM101.419 81.15C101.419 80.5713 101.303 80.0673 101.069 79.638C100.836 79.2087 100.519 78.882 100.117 78.658C99.7253 78.4247 99.2913 78.308 98.8153 78.308C98.3393 78.308 97.9053 78.42 97.5133 78.644C97.1213 78.868 96.8086 79.1947 96.5753 79.624C96.342 80.0533 96.2253 80.5573 96.2253 81.136C96.2253 81.724 96.342 82.2373 96.5753 82.676C96.8086 83.1053 97.1213 83.4367 97.5133 83.67C97.9053 83.894 98.3393 84.006 98.8153 84.006C99.2913 84.006 99.7253 83.894 100.117 83.67C100.519 83.4367 100.836 83.1053 101.069 82.676C101.303 82.2373 101.419 81.7287 101.419 81.15ZM106.134 78.574C106.358 78.1353 106.676 77.7947 107.086 77.552C107.506 77.3093 108.015 77.188 108.612 77.188V78.504H108.276C106.848 78.504 106.134 79.2787 106.134 80.828V85H104.86V77.328H106.134V78.574ZM113.429 85.126C112.71 85.126 112.057 84.9627 111.469 84.636C110.89 84.3093 110.433 83.8473 110.097 83.25C109.77 82.6433 109.607 81.9433 109.607 81.15C109.607 80.366 109.775 79.6753 110.111 79.078C110.456 78.4713 110.923 78.0093 111.511 77.692C112.099 77.3653 112.757 77.202 113.485 77.202C114.213 77.202 114.871 77.3653 115.459 77.692C116.047 78.0093 116.509 78.4667 116.845 79.064C117.19 79.6613 117.363 80.3567 117.363 81.15C117.363 81.9433 117.186 82.6433 116.831 83.25C116.486 83.8473 116.014 84.3093 115.417 84.636C114.82 84.9627 114.157 85.126 113.429 85.126ZM113.429 84.006C113.886 84.006 114.316 83.8987 114.717 83.684C115.118 83.4693 115.44 83.1473 115.683 82.718C115.935 82.2887 116.061 81.766 116.061 81.15C116.061 80.534 115.94 80.0113 115.697 79.582C115.454 79.1527 115.137 78.8353 114.745 78.63C114.353 78.4153 113.928 78.308 113.471 78.308C113.004 78.308 112.575 78.4153 112.183 78.63C111.8 78.8353 111.492 79.1527 111.259 79.582C111.026 80.0113 110.909 80.534 110.909 81.15C110.909 81.7753 111.021 82.3027 111.245 82.732C111.478 83.1613 111.786 83.4833 112.169 83.698C112.552 83.9033 112.972 84.006 113.429 84.006ZM120.312 78.742C120.564 78.3033 120.937 77.9393 121.432 77.65C121.936 77.3513 122.519 77.202 123.182 77.202C123.863 77.202 124.479 77.3653 125.03 77.692C125.59 78.0187 126.029 78.4807 126.346 79.078C126.663 79.666 126.822 80.352 126.822 81.136C126.822 81.9107 126.663 82.6013 126.346 83.208C126.029 83.8147 125.59 84.286 125.03 84.622C124.479 84.958 123.863 85.126 123.182 85.126C122.529 85.126 121.95 84.9813 121.446 84.692C120.951 84.3933 120.573 84.0247 120.312 83.586V88.64H119.038V77.328H120.312V78.742ZM125.52 81.136C125.52 80.5573 125.403 80.0533 125.17 79.624C124.937 79.1947 124.619 78.868 124.218 78.644C123.826 78.42 123.392 78.308 122.916 78.308C122.449 78.308 122.015 78.4247 121.614 78.658C121.222 78.882 120.905 79.2133 120.662 79.652C120.429 80.0813 120.312 80.5807 120.312 81.15C120.312 81.7287 120.429 82.2373 120.662 82.676C120.905 83.1053 121.222 83.4367 121.614 83.67C122.015 83.894 122.449 84.006 122.916 84.006C123.392 84.006 123.826 83.894 124.218 83.67C124.619 83.4367 124.937 83.1053 125.17 82.676C125.403 82.2373 125.52 81.724 125.52 81.136ZM135.577 85.126C134.859 85.126 134.205 84.9627 133.617 84.636C133.039 84.3093 132.581 83.8473 132.245 83.25C131.919 82.6433 131.755 81.9433 131.755 81.15C131.755 80.366 131.923 79.6753 132.259 79.078C132.605 78.4713 133.071 78.0093 133.659 77.692C134.247 77.3653 134.905 77.202 135.633 77.202C136.361 77.202 137.019 77.3653 137.607 77.692C138.195 78.0093 138.657 78.4667 138.993 79.064C139.339 79.6613 139.511 80.3567 139.511 81.15C139.511 81.9433 139.334 82.6433 138.979 83.25C138.634 83.8473 138.163 84.3093 137.565 84.636C136.968 84.9627 136.305 85.126 135.577 85.126ZM135.577 84.006C136.035 84.006 136.464 83.8987 136.865 83.684C137.267 83.4693 137.589 83.1473 137.831 82.718C138.083 82.2887 138.209 81.766 138.209 81.15C138.209 80.534 138.088 80.0113 137.845 79.582C137.603 79.1527 137.285 78.8353 136.893 78.63C136.501 78.4153 136.077 78.308 135.619 78.308C135.153 78.308 134.723 78.4153 134.331 78.63C133.949 78.8353 133.641 79.1527 133.407 79.582C133.174 80.0113 133.057 80.534 133.057 81.15C133.057 81.7753 133.169 82.3027 133.393 82.732C133.627 83.1613 133.935 83.4833 134.317 83.698C134.7 83.9033 135.12 84.006 135.577 84.006ZM142.46 78.574C142.684 78.1353 143.002 77.7947 143.412 77.552C143.832 77.3093 144.341 77.188 144.938 77.188V78.504H144.602C143.174 78.504 142.46 79.2787 142.46 80.828V85H141.186V77.328H142.46V78.574ZM10.8344 102.15C10.8344 101.357 10.9931 100.666 11.3104 100.078C11.6278 99.4807 12.0664 99.0187 12.6264 98.692C13.1958 98.3653 13.8444 98.202 14.5724 98.202C15.5151 98.202 16.2898 98.4307 16.8964 98.888C17.5124 99.3453 17.9184 99.98 18.1144 100.792H16.7424C16.6118 100.325 16.3551 99.9567 15.9724 99.686C15.5991 99.4153 15.1324 99.28 14.5724 99.28C13.8444 99.28 13.2564 99.532 12.8084 100.036C12.3604 100.531 12.1364 101.235 12.1364 102.15C12.1364 103.074 12.3604 103.788 12.8084 104.292C13.2564 104.796 13.8444 105.048 14.5724 105.048C15.1324 105.048 15.5991 104.917 15.9724 104.656C16.3458 104.395 16.6024 104.021 16.7424 103.536H18.1144C17.9091 104.32 17.4984 104.95 16.8824 105.426C16.2664 105.893 15.4964 106.126 14.5724 106.126C13.8444 106.126 13.1958 105.963 12.6264 105.636C12.0664 105.309 11.6278 104.847 11.3104 104.25C10.9931 103.653 10.8344 102.953 10.8344 102.15ZM21.0883 95.64V106H19.8143V95.64H21.0883ZM23.9176 97.082C23.675 97.082 23.4696 96.998 23.3016 96.83C23.1336 96.662 23.0496 96.4567 23.0496 96.214C23.0496 95.9713 23.1336 95.766 23.3016 95.598C23.4696 95.43 23.675 95.346 23.9176 95.346C24.151 95.346 24.347 95.43 24.5056 95.598C24.6736 95.766 24.7576 95.9713 24.7576 96.214C24.7576 96.4567 24.6736 96.662 24.5056 96.83C24.347 96.998 24.151 97.082 23.9176 97.082ZM24.5336 98.328V106H23.2596V98.328H24.5336ZM26.229 102.15C26.229 101.357 26.3876 100.666 26.705 100.078C27.0223 99.4807 27.461 99.0187 28.021 98.692C28.5903 98.3653 29.239 98.202 29.967 98.202C30.9096 98.202 31.6843 98.4307 32.291 98.888C32.907 99.3453 33.313 99.98 33.509 100.792H32.137C32.0063 100.325 31.7496 99.9567 31.367 99.686C30.9936 99.4153 30.527 99.28 29.967 99.28C29.239 99.28 28.651 99.532 28.203 100.036C27.755 100.531 27.531 101.235 27.531 102.15C27.531 103.074 27.755 103.788 28.203 104.292C28.651 104.796 29.239 105.048 29.967 105.048C30.527 105.048 30.9936 104.917 31.367 104.656C31.7403 104.395 31.997 104.021 32.137 103.536H33.509C33.3036 104.32 32.893 104.95 32.277 105.426C31.661 105.893 30.891 106.126 29.967 106.126C29.239 106.126 28.5903 105.963 28.021 105.636C27.461 105.309 27.0223 104.847 26.705 104.25C26.3876 103.653 26.229 102.953 26.229 102.15ZM39.4929 106L36.4829 102.612V106H35.2089V95.64H36.4829V101.73L39.4369 98.328H41.2149L37.6029 102.15L41.2289 106H39.4929ZM49.9544 98.188C50.533 98.188 51.0557 98.314 51.5224 98.566C51.989 98.8087 52.353 99.1773 52.6144 99.672C52.885 100.167 53.0204 100.769 53.0204 101.478V106H51.7604V101.66C51.7604 100.895 51.569 100.311 51.1864 99.91C50.8037 99.4993 50.281 99.294 49.6184 99.294C48.9464 99.294 48.4097 99.504 48.0084 99.924C47.6164 100.344 47.4204 100.955 47.4204 101.758V106H46.1464V95.64H47.4204V99.42C47.6724 99.028 48.0177 98.7247 48.4564 98.51C48.9044 98.2953 49.4037 98.188 49.9544 98.188ZM62.1014 101.87C62.1014 102.113 62.0874 102.369 62.0594 102.64H55.9274C55.9741 103.396 56.2308 103.989 56.6974 104.418C57.1734 104.838 57.7474 105.048 58.4194 105.048C58.9701 105.048 59.4274 104.922 59.7914 104.67C60.1648 104.409 60.4261 104.063 60.5754 103.634H61.9474C61.7421 104.371 61.3314 104.973 60.7154 105.44C60.0994 105.897 59.3341 106.126 58.4194 106.126C57.6914 106.126 57.0381 105.963 56.4594 105.636C55.8901 105.309 55.4421 104.847 55.1154 104.25C54.7888 103.643 54.6254 102.943 54.6254 102.15C54.6254 101.357 54.7841 100.661 55.1014 100.064C55.4188 99.4667 55.8621 99.0093 56.4314 98.692C57.0101 98.3653 57.6728 98.202 58.4194 98.202C59.1474 98.202 59.7914 98.3607 60.3514 98.678C60.9114 98.9953 61.3408 99.434 61.6394 99.994C61.9474 100.545 62.1014 101.17 62.1014 101.87ZM60.7854 101.604C60.7854 101.119 60.6781 100.703 60.4634 100.358C60.2488 100.003 59.9548 99.7373 59.5814 99.56C59.2174 99.3733 58.8114 99.28 58.3634 99.28C57.7194 99.28 57.1688 99.4853 56.7114 99.896C56.2634 100.307 56.0068 100.876 55.9414 101.604H60.7854ZM65.0571 99.574C65.2811 99.1353 65.5984 98.7947 66.0091 98.552C66.4291 98.3093 66.9377 98.188 67.5351 98.188V99.504H67.1991C65.7711 99.504 65.0571 100.279 65.0571 101.828V106H63.7831V98.328H65.0571V99.574ZM76.0057 101.87C76.0057 102.113 75.9917 102.369 75.9637 102.64H69.8317C69.8784 103.396 70.1351 103.989 70.6017 104.418C71.0777 104.838 71.6517 105.048 72.3237 105.048C72.8744 105.048 73.3317 104.922 73.6957 104.67C74.0691 104.409 74.3304 104.063 74.4797 103.634H75.8517C75.6464 104.371 75.2357 104.973 74.6197 105.44C74.0037 105.897 73.2384 106.126 72.3237 106.126C71.5957 106.126 70.9424 105.963 70.3637 105.636C69.7944 105.309 69.3464 104.847 69.0197 104.25C68.6931 103.643 68.5297 102.943 68.5297 102.15C68.5297 101.357 68.6884 100.661 69.0057 100.064C69.3231 99.4667 69.7664 99.0093 70.3357 98.692C70.9144 98.3653 71.5771 98.202 72.3237 98.202C73.0517 98.202 73.6957 98.3607 74.2557 98.678C74.8157 98.9953 75.2451 99.434 75.5437 99.994C75.8517 100.545 76.0057 101.17 76.0057 101.87ZM74.6897 101.604C74.6897 101.119 74.5824 100.703 74.3677 100.358C74.1531 100.003 73.8591 99.7373 73.4857 99.56C73.1217 99.3733 72.7157 99.28 72.2677 99.28C71.6237 99.28 71.0731 99.4853 70.6157 99.896C70.1677 100.307 69.9111 100.876 69.8457 101.604H74.6897ZM82.9738 99.378V103.9C82.9738 104.273 83.0531 104.539 83.2118 104.698C83.3705 104.847 83.6458 104.922 84.0378 104.922H84.9758V106H83.8278C83.1185 106 82.5865 105.837 82.2318 105.51C81.8771 105.183 81.6998 104.647 81.6998 103.9V99.378H80.7058V98.328H81.6998V96.396H82.9738V98.328H84.9758V99.378H82.9738ZM89.8654 106.126C89.1467 106.126 88.4934 105.963 87.9054 105.636C87.3267 105.309 86.8694 104.847 86.5334 104.25C86.2067 103.643 86.0434 102.943 86.0434 102.15C86.0434 101.366 86.2114 100.675 86.5474 100.078C86.8927 99.4713 87.3594 99.0093 87.9474 98.692C88.5354 98.3653 89.1934 98.202 89.9214 98.202C90.6494 98.202 91.3074 98.3653 91.8954 98.692C92.4834 99.0093 92.9454 99.4667 93.2814 100.064C93.6267 100.661 93.7994 101.357 93.7994 102.15C93.7994 102.943 93.6221 103.643 93.2674 104.25C92.9221 104.847 92.4507 105.309 91.8534 105.636C91.2561 105.963 90.5934 106.126 89.8654 106.126ZM89.8654 105.006C90.3227 105.006 90.7521 104.899 91.1534 104.684C91.5547 104.469 91.8767 104.147 92.1194 103.718C92.3714 103.289 92.4974 102.766 92.4974 102.15C92.4974 101.534 92.3761 101.011 92.1334 100.582C91.8907 100.153 91.5734 99.8353 91.1814 99.63C90.7894 99.4153 90.3647 99.308 89.9074 99.308C89.4407 99.308 89.0114 99.4153 88.6194 99.63C88.2367 99.8353 87.9287 100.153 87.6954 100.582C87.4621 101.011 87.3454 101.534 87.3454 102.15C87.3454 102.775 87.4574 103.303 87.6814 103.732C87.9147 104.161 88.2227 104.483 88.6054 104.698C88.9881 104.903 89.4081 105.006 89.8654 105.006ZM101.923 106.126C101.335 106.126 100.808 106.028 100.341 105.832C99.8742 105.627 99.5056 105.347 99.2349 104.992C98.9642 104.628 98.8149 104.213 98.7869 103.746H100.103C100.14 104.129 100.318 104.441 100.635 104.684C100.962 104.927 101.386 105.048 101.909 105.048C102.394 105.048 102.777 104.941 103.057 104.726C103.337 104.511 103.477 104.241 103.477 103.914C103.477 103.578 103.328 103.331 103.029 103.172C102.73 103.004 102.268 102.841 101.643 102.682C101.074 102.533 100.607 102.383 100.243 102.234C99.8882 102.075 99.5802 101.847 99.3189 101.548C99.0669 101.24 98.9409 100.839 98.9409 100.344C98.9409 99.952 99.0576 99.5927 99.2909 99.266C99.5242 98.9393 99.8556 98.6827 100.285 98.496C100.714 98.3 101.204 98.202 101.755 98.202C102.604 98.202 103.29 98.4167 103.813 98.846C104.336 99.2753 104.616 99.8633 104.653 100.61H103.379C103.351 100.209 103.188 99.8867 102.889 99.644C102.6 99.4013 102.208 99.28 101.713 99.28C101.256 99.28 100.892 99.378 100.621 99.574C100.35 99.77 100.215 100.027 100.215 100.344C100.215 100.596 100.294 100.806 100.453 100.974C100.621 101.133 100.826 101.263 101.069 101.366C101.321 101.459 101.666 101.567 102.105 101.688C102.656 101.837 103.104 101.987 103.449 102.136C103.794 102.276 104.088 102.491 104.331 102.78C104.583 103.069 104.714 103.447 104.723 103.914C104.723 104.334 104.606 104.712 104.373 105.048C104.14 105.384 103.808 105.65 103.379 105.846C102.959 106.033 102.474 106.126 101.923 106.126ZM113.521 101.87C113.521 102.113 113.507 102.369 113.479 102.64H107.347C107.394 103.396 107.651 103.989 108.117 104.418C108.593 104.838 109.167 105.048 109.839 105.048C110.39 105.048 110.847 104.922 111.211 104.67C111.585 104.409 111.846 104.063 111.995 103.634H113.367C113.162 104.371 112.751 104.973 112.135 105.44C111.519 105.897 110.754 106.126 109.839 106.126C109.111 106.126 108.458 105.963 107.879 105.636C107.31 105.309 106.862 104.847 106.535 104.25C106.209 103.643 106.045 102.943 106.045 102.15C106.045 101.357 106.204 100.661 106.521 100.064C106.839 99.4667 107.282 99.0093 107.851 98.692C108.43 98.3653 109.093 98.202 109.839 98.202C110.567 98.202 111.211 98.3607 111.771 98.678C112.331 98.9953 112.761 99.434 113.059 99.994C113.367 100.545 113.521 101.17 113.521 101.87ZM112.205 101.604C112.205 101.119 112.098 100.703 111.883 100.358C111.669 100.003 111.375 99.7373 111.001 99.56C110.637 99.3733 110.231 99.28 109.783 99.28C109.139 99.28 108.589 99.4853 108.131 99.896C107.683 100.307 107.427 100.876 107.361 101.604H112.205ZM116.477 95.64V106H115.203V95.64H116.477ZM125.648 101.87C125.648 102.113 125.634 102.369 125.606 102.64H119.474C119.521 103.396 119.778 103.989 120.244 104.418C120.72 104.838 121.294 105.048 121.966 105.048C122.517 105.048 122.974 104.922 123.338 104.67C123.712 104.409 123.973 104.063 124.122 103.634H125.494C125.289 104.371 124.878 104.973 124.262 105.44C123.646 105.897 122.881 106.126 121.966 106.126C121.238 106.126 120.585 105.963 120.006 105.636C119.437 105.309 118.989 104.847 118.662 104.25C118.336 103.643 118.172 102.943 118.172 102.15C118.172 101.357 118.331 100.661 118.648 100.064C118.966 99.4667 119.409 99.0093 119.978 98.692C120.557 98.3653 121.22 98.202 121.966 98.202C122.694 98.202 123.338 98.3607 123.898 98.678C124.458 98.9953 124.888 99.434 125.186 99.994C125.494 100.545 125.648 101.17 125.648 101.87ZM124.332 101.604C124.332 101.119 124.225 100.703 124.01 100.358C123.796 100.003 123.502 99.7373 123.128 99.56C122.764 99.3733 122.358 99.28 121.91 99.28C121.266 99.28 120.716 99.4853 120.258 99.896C119.81 100.307 119.554 100.876 119.488 101.604H124.332ZM126.854 102.15C126.854 101.357 127.013 100.666 127.33 100.078C127.647 99.4807 128.086 99.0187 128.646 98.692C129.215 98.3653 129.864 98.202 130.592 98.202C131.535 98.202 132.309 98.4307 132.916 98.888C133.532 99.3453 133.938 99.98 134.134 100.792H132.762C132.631 100.325 132.375 99.9567 131.992 99.686C131.619 99.4153 131.152 99.28 130.592 99.28C129.864 99.28 129.276 99.532 128.828 100.036C128.38 100.531 128.156 101.235 128.156 102.15C128.156 103.074 128.38 103.788 128.828 104.292C129.276 104.796 129.864 105.048 130.592 105.048C131.152 105.048 131.619 104.917 131.992 104.656C132.365 104.395 132.622 104.021 132.762 103.536H134.134C133.929 104.32 133.518 104.95 132.902 105.426C132.286 105.893 131.516 106.126 130.592 106.126C129.864 106.126 129.215 105.963 128.646 105.636C128.086 105.309 127.647 104.847 127.33 104.25C127.013 103.653 126.854 102.953 126.854 102.15ZM137.388 99.378V103.9C137.388 104.273 137.467 104.539 137.626 104.698C137.785 104.847 138.06 104.922 138.452 104.922H139.39V106H138.242C137.533 106 137.001 105.837 136.646 105.51C136.291 105.183 136.114 104.647 136.114 103.9V99.378H135.12V98.328H136.114V96.396H137.388V98.328H139.39V99.378H137.388ZM147.788 99.378H146.178V106H144.904V99.378H143.91V98.328H144.904V97.782C144.904 96.9233 145.123 96.298 145.562 95.906C146.01 95.5047 146.724 95.304 147.704 95.304V96.368C147.144 96.368 146.747 96.48 146.514 96.704C146.29 96.9187 146.178 97.278 146.178 97.782V98.328H147.788V99.378ZM149.931 97.082C149.689 97.082 149.483 96.998 149.315 96.83C149.147 96.662 149.063 96.4567 149.063 96.214C149.063 95.9713 149.147 95.766 149.315 95.598C149.483 95.43 149.689 95.346 149.931 95.346C150.165 95.346 150.361 95.43 150.519 95.598C150.687 95.766 150.771 95.9713 150.771 96.214C150.771 96.4567 150.687 96.662 150.519 96.83C150.361 96.998 150.165 97.082 149.931 97.082ZM150.547 98.328V106H149.273V98.328H150.547ZM153.993 95.64V106H152.719V95.64H153.993ZM163.164 101.87C163.164 102.113 163.15 102.369 163.122 102.64H156.99C157.037 103.396 157.293 103.989 157.76 104.418C158.236 104.838 158.81 105.048 159.482 105.048C160.033 105.048 160.49 104.922 160.854 104.67C161.227 104.409 161.489 104.063 161.638 103.634H163.01C162.805 104.371 162.394 104.973 161.778 105.44C161.162 105.897 160.397 106.126 159.482 106.126C158.754 106.126 158.101 105.963 157.522 105.636C156.953 105.309 156.505 104.847 156.178 104.25C155.851 103.643 155.688 102.943 155.688 102.15C155.688 101.357 155.847 100.661 156.164 100.064C156.481 99.4667 156.925 99.0093 157.494 98.692C158.073 98.3653 158.735 98.202 159.482 98.202C160.21 98.202 160.854 98.3607 161.414 98.678C161.974 98.9953 162.403 99.434 162.702 99.994C163.01 100.545 163.164 101.17 163.164 101.87ZM161.848 101.604C161.848 101.119 161.741 100.703 161.526 100.358C161.311 100.003 161.017 99.7373 160.644 99.56C160.28 99.3733 159.874 99.28 159.426 99.28C158.782 99.28 158.231 99.4853 157.774 99.896C157.326 100.307 157.069 100.876 157.004 101.604H161.848Z" fill="#A098AE"/>
</svg>
