<svg width="1080" height="479" viewBox="0 0 1080 479" fill="none" xmlns="http://www.w3.org/2000/svg">
<rect width="1080" height="479" rx="20" fill="white"/>
<circle cx="964.071" cy="42.5" r="4.5" fill="white" stroke="#FB7D5B" stroke-width="3"/>
<path d="M980.352 45.964H983.768V47H979.078V37.242H980.352V45.964ZM984.645 43.136C984.645 42.352 984.804 41.666 985.121 41.078C985.438 40.4807 985.872 40.0187 986.423 39.692C986.983 39.3653 987.604 39.202 988.285 39.202C988.957 39.202 989.54 39.3467 990.035 39.636C990.53 39.9253 990.898 40.2893 991.141 40.728V39.328H992.429V47H991.141V45.572C990.889 46.02 990.511 46.3933 990.007 46.692C989.512 46.9813 988.934 47.126 988.271 47.126C987.59 47.126 986.974 46.958 986.423 46.622C985.872 46.286 985.438 45.8147 985.121 45.208C984.804 44.6013 984.645 43.9107 984.645 43.136ZM991.141 43.15C991.141 42.5713 991.024 42.0673 990.791 41.638C990.558 41.2087 990.24 40.882 989.839 40.658C989.447 40.4247 989.013 40.308 988.537 40.308C988.061 40.308 987.627 40.42 987.235 40.644C986.843 40.868 986.53 41.1947 986.297 41.624C986.064 42.0533 985.947 42.5573 985.947 43.136C985.947 43.724 986.064 44.2373 986.297 44.676C986.53 45.1053 986.843 45.4367 987.235 45.67C987.627 45.894 988.061 46.006 988.537 46.006C989.013 46.006 989.447 45.894 989.839 45.67C990.24 45.4367 990.558 45.1053 990.791 44.676C991.024 44.2373 991.141 43.7287 991.141 43.15ZM997.298 47.126C996.71 47.126 996.183 47.028 995.716 46.832C995.249 46.6267 994.881 46.3467 994.61 45.992C994.339 45.628 994.19 45.2127 994.162 44.746H995.478C995.515 45.1287 995.693 45.4413 996.01 45.684C996.337 45.9267 996.761 46.048 997.284 46.048C997.769 46.048 998.152 45.9407 998.432 45.726C998.712 45.5113 998.852 45.2407 998.852 44.914C998.852 44.578 998.703 44.3307 998.404 44.172C998.105 44.004 997.643 43.8407 997.018 43.682C996.449 43.5327 995.982 43.3833 995.618 43.234C995.263 43.0753 994.955 42.8467 994.694 42.548C994.442 42.24 994.316 41.8387 994.316 41.344C994.316 40.952 994.433 40.5927 994.666 40.266C994.899 39.9393 995.231 39.6827 995.66 39.496C996.089 39.3 996.579 39.202 997.13 39.202C997.979 39.202 998.665 39.4167 999.188 39.846C999.711 40.2753 999.991 40.8633 1000.03 41.61H998.754C998.726 41.2087 998.563 40.8867 998.264 40.644C997.975 40.4013 997.583 40.28 997.088 40.28C996.631 40.28 996.267 40.378 995.996 40.574C995.725 40.77 995.59 41.0267 995.59 41.344C995.59 41.596 995.669 41.806 995.828 41.974C995.996 42.1327 996.201 42.2633 996.444 42.366C996.696 42.4593 997.041 42.5667 997.48 42.688C998.031 42.8373 998.479 42.9867 998.824 43.136C999.169 43.276 999.463 43.4907 999.706 43.78C999.958 44.0693 1000.09 44.4473 1000.1 44.914C1000.1 45.334 999.981 45.712 999.748 46.048C999.515 46.384 999.183 46.65 998.754 46.846C998.334 47.0327 997.849 47.126 997.298 47.126ZM1003.45 40.378V44.9C1003.45 45.2733 1003.53 45.5393 1003.69 45.698C1003.85 45.8473 1004.12 45.922 1004.51 45.922H1005.45V47H1004.3C1003.6 47 1003.06 46.8367 1002.71 46.51C1002.35 46.1833 1002.18 45.6467 1002.18 44.9V40.378H1001.18V39.328H1002.18V37.396H1003.45V39.328H1005.45V40.378H1003.45ZM1022.99 37.242L1020.16 47H1018.74L1016.47 39.146L1014.12 47L1012.7 47.014L1009.97 37.242H1011.33L1013.46 45.516L1015.81 37.242H1017.24L1019.48 45.488L1021.62 37.242H1022.99ZM1031.39 42.87C1031.39 43.1127 1031.37 43.3693 1031.34 43.64H1025.21C1025.26 44.396 1025.52 44.9887 1025.98 45.418C1026.46 45.838 1027.03 46.048 1027.7 46.048C1028.26 46.048 1028.71 45.922 1029.08 45.67C1029.45 45.4087 1029.71 45.0633 1029.86 44.634H1031.23C1031.03 45.3713 1030.62 45.9733 1030 46.44C1029.38 46.8973 1028.62 47.126 1027.7 47.126C1026.98 47.126 1026.32 46.9627 1025.74 46.636C1025.18 46.3093 1024.73 45.8473 1024.4 45.25C1024.07 44.6433 1023.91 43.9433 1023.91 43.15C1023.91 42.3567 1024.07 41.6613 1024.39 41.064C1024.7 40.4667 1025.15 40.0093 1025.72 39.692C1026.3 39.3653 1026.96 39.202 1027.7 39.202C1028.43 39.202 1029.08 39.3607 1029.64 39.678C1030.2 39.9953 1030.63 40.434 1030.92 40.994C1031.23 41.5447 1031.39 42.17 1031.39 42.87ZM1030.07 42.604C1030.07 42.1187 1029.96 41.7033 1029.75 41.358C1029.53 41.0033 1029.24 40.7373 1028.87 40.56C1028.5 40.3733 1028.1 40.28 1027.65 40.28C1027 40.28 1026.45 40.4853 1026 40.896C1025.55 41.3067 1025.29 41.876 1025.23 42.604H1030.07ZM1040.07 42.87C1040.07 43.1127 1040.05 43.3693 1040.03 43.64H1033.89C1033.94 44.396 1034.2 44.9887 1034.66 45.418C1035.14 45.838 1035.71 46.048 1036.39 46.048C1036.94 46.048 1037.39 45.922 1037.76 45.67C1038.13 45.4087 1038.39 45.0633 1038.54 44.634H1039.91C1039.71 45.3713 1039.3 45.9733 1038.68 46.44C1038.07 46.8973 1037.3 47.126 1036.39 47.126C1035.66 47.126 1035 46.9627 1034.43 46.636C1033.86 46.3093 1033.41 45.8473 1033.08 45.25C1032.76 44.6433 1032.59 43.9433 1032.59 43.15C1032.59 42.3567 1032.75 41.6613 1033.07 41.064C1033.39 40.4667 1033.83 40.0093 1034.4 39.692C1034.98 39.3653 1035.64 39.202 1036.39 39.202C1037.11 39.202 1037.76 39.3607 1038.32 39.678C1038.88 39.9953 1039.31 40.434 1039.61 40.994C1039.91 41.5447 1040.07 42.17 1040.07 42.87ZM1038.75 42.604C1038.75 42.1187 1038.64 41.7033 1038.43 41.358C1038.22 41.0033 1037.92 40.7373 1037.55 40.56C1037.18 40.3733 1036.78 40.28 1036.33 40.28C1035.69 40.28 1035.14 40.4853 1034.68 40.896C1034.23 41.3067 1033.97 41.876 1033.91 42.604H1038.75ZM1046.03 47L1043.02 43.612V47H1041.75V36.64H1043.02V42.73L1045.98 39.328H1047.76L1044.14 43.15L1047.77 47H1046.03Z" fill="#A098AE"/>
<path d="M978.486 66.722V63.86H983.472V77H980.268V66.722H978.486ZM987.324 77.144C986.784 77.144 986.34 76.988 985.992 76.676C985.656 76.352 985.488 75.956 985.488 75.488C985.488 75.008 985.656 74.606 985.992 74.282C986.34 73.958 986.784 73.796 987.324 73.796C987.852 73.796 988.284 73.958 988.62 74.282C988.968 74.606 989.142 75.008 989.142 75.488C989.142 75.956 988.968 76.352 988.62 76.676C988.284 76.988 987.852 77.144 987.324 77.144ZM990.766 67.568C990.814 66.284 991.234 65.294 992.026 64.598C992.818 63.902 993.892 63.554 995.248 63.554C996.148 63.554 996.916 63.71 997.552 64.022C998.2 64.334 998.686 64.76 999.01 65.3C999.346 65.84 999.514 66.446 999.514 67.118C999.514 67.91 999.316 68.558 998.92 69.062C998.524 69.554 998.062 69.89 997.534 70.07V70.142C998.218 70.37 998.758 70.748 999.154 71.276C999.55 71.804 999.748 72.482 999.748 73.31C999.748 74.054 999.574 74.714 999.226 75.29C998.89 75.854 998.392 76.298 997.732 76.622C997.084 76.946 996.31 77.108 995.41 77.108C993.97 77.108 992.818 76.754 991.954 76.046C991.102 75.338 990.652 74.27 990.604 72.842H993.592C993.604 73.37 993.754 73.79 994.042 74.102C994.33 74.402 994.75 74.552 995.302 74.552C995.77 74.552 996.13 74.42 996.382 74.156C996.646 73.88 996.778 73.52 996.778 73.076C996.778 72.5 996.592 72.086 996.22 71.834C995.86 71.57 995.278 71.438 994.474 71.438H993.898V68.936H994.474C995.086 68.936 995.578 68.834 995.95 68.63C996.334 68.414 996.526 68.036 996.526 67.496C996.526 67.064 996.406 66.728 996.166 66.488C995.926 66.248 995.596 66.128 995.176 66.128C994.72 66.128 994.378 66.266 994.15 66.542C993.934 66.818 993.808 67.16 993.772 67.568H990.766ZM1010.81 66.542H1005.19V69.026C1005.43 68.762 1005.77 68.546 1006.2 68.378C1006.63 68.21 1007.1 68.126 1007.6 68.126C1008.5 68.126 1009.25 68.33 1009.84 68.738C1010.44 69.146 1010.87 69.674 1011.15 70.322C1011.43 70.97 1011.56 71.672 1011.56 72.428C1011.56 73.832 1011.17 74.948 1010.38 75.776C1009.58 76.592 1008.47 77 1007.03 77C1006.07 77 1005.23 76.838 1004.53 76.514C1003.82 76.178 1003.27 75.716 1002.89 75.128C1002.5 74.54 1002.29 73.862 1002.26 73.094H1005.26C1005.34 73.466 1005.51 73.778 1005.79 74.03C1006.06 74.27 1006.44 74.39 1006.92 74.39C1007.48 74.39 1007.9 74.21 1008.18 73.85C1008.46 73.49 1008.59 73.01 1008.59 72.41C1008.59 71.822 1008.45 71.372 1008.16 71.06C1007.87 70.748 1007.45 70.592 1006.9 70.592C1006.49 70.592 1006.16 70.694 1005.89 70.898C1005.63 71.09 1005.46 71.348 1005.37 71.672H1002.4V63.842H1010.81V66.542ZM1019.76 67.406C1019.67 66.962 1019.5 66.632 1019.26 66.416C1019.02 66.188 1018.68 66.074 1018.23 66.074C1017.55 66.074 1017.06 66.374 1016.76 66.974C1016.46 67.562 1016.3 68.498 1016.29 69.782C1016.55 69.362 1016.93 69.032 1017.42 68.792C1017.93 68.552 1018.48 68.432 1019.08 68.432C1020.25 68.432 1021.2 68.804 1021.9 69.548C1022.62 70.292 1022.98 71.33 1022.98 72.662C1022.98 73.538 1022.8 74.306 1022.44 74.966C1022.1 75.626 1021.58 76.142 1020.9 76.514C1020.22 76.886 1019.43 77.072 1018.5 77.072C1016.65 77.072 1015.37 76.496 1014.65 75.344C1013.93 74.18 1013.57 72.512 1013.57 70.34C1013.57 68.06 1013.95 66.368 1014.7 65.264C1015.47 64.148 1016.7 63.59 1018.38 63.59C1019.28 63.59 1020.03 63.77 1020.64 64.13C1021.27 64.478 1021.74 64.94 1022.05 65.516C1022.37 66.092 1022.56 66.722 1022.62 67.406H1019.76ZM1018.34 70.862C1017.82 70.862 1017.39 71.018 1017.04 71.33C1016.71 71.63 1016.54 72.062 1016.54 72.626C1016.54 73.202 1016.7 73.652 1017.01 73.976C1017.33 74.3 1017.79 74.462 1018.38 74.462C1018.9 74.462 1019.32 74.306 1019.62 73.994C1019.93 73.67 1020.09 73.232 1020.09 72.68C1020.09 72.116 1019.94 71.672 1019.64 71.348C1019.34 71.024 1018.9 70.862 1018.34 70.862Z" fill="#303972"/>
<circle cx="858" cy="42" r="4.5" fill="white" stroke="#FCC43E" stroke-width="3"/>
<path d="M879.084 37.242V38.278H876.424V47H875.15V38.278H872.476V37.242H879.084ZM884.46 39.188C885.039 39.188 885.562 39.314 886.028 39.566C886.495 39.8087 886.859 40.1773 887.12 40.672C887.391 41.1667 887.526 41.7687 887.526 42.478V47H886.266V42.66C886.266 41.8947 886.075 41.3113 885.692 40.91C885.31 40.4993 884.787 40.294 884.124 40.294C883.452 40.294 882.916 40.504 882.514 40.924C882.122 41.344 881.926 41.9553 881.926 42.758V47H880.652V36.64H881.926V40.42C882.178 40.028 882.524 39.7247 882.962 39.51C883.41 39.2953 883.91 39.188 884.46 39.188ZM890.265 38.082C890.023 38.082 889.817 37.998 889.649 37.83C889.481 37.662 889.397 37.4567 889.397 37.214C889.397 36.9713 889.481 36.766 889.649 36.598C889.817 36.43 890.023 36.346 890.265 36.346C890.499 36.346 890.695 36.43 890.853 36.598C891.021 36.766 891.105 36.9713 891.105 37.214C891.105 37.4567 891.021 37.662 890.853 37.83C890.695 37.998 890.499 38.082 890.265 38.082ZM890.881 39.328V47H889.607V39.328H890.881ZM895.769 47.126C895.181 47.126 894.653 47.028 894.187 46.832C893.72 46.6267 893.351 46.3467 893.081 45.992C892.81 45.628 892.661 45.2127 892.633 44.746H893.949C893.986 45.1287 894.163 45.4413 894.481 45.684C894.807 45.9267 895.232 46.048 895.755 46.048C896.24 46.048 896.623 45.9407 896.903 45.726C897.183 45.5113 897.323 45.2407 897.323 44.914C897.323 44.578 897.173 44.3307 896.875 44.172C896.576 44.004 896.114 43.8407 895.489 43.682C894.919 43.5327 894.453 43.3833 894.089 43.234C893.734 43.0753 893.426 42.8467 893.165 42.548C892.913 42.24 892.787 41.8387 892.787 41.344C892.787 40.952 892.903 40.5927 893.137 40.266C893.37 39.9393 893.701 39.6827 894.131 39.496C894.56 39.3 895.05 39.202 895.601 39.202C896.45 39.202 897.136 39.4167 897.659 39.846C898.181 40.2753 898.461 40.8633 898.499 41.61H897.225C897.197 41.2087 897.033 40.8867 896.735 40.644C896.445 40.4013 896.053 40.28 895.559 40.28C895.101 40.28 894.737 40.378 894.467 40.574C894.196 40.77 894.061 41.0267 894.061 41.344C894.061 41.596 894.14 41.806 894.299 41.974C894.467 42.1327 894.672 42.2633 894.915 42.366C895.167 42.4593 895.512 42.5667 895.951 42.688C896.501 42.8373 896.949 42.9867 897.295 43.136C897.64 43.276 897.934 43.4907 898.177 43.78C898.429 44.0693 898.559 44.4473 898.569 44.914C898.569 45.334 898.452 45.712 898.219 46.048C897.985 46.384 897.654 46.65 897.225 46.846C896.805 47.0327 896.319 47.126 895.769 47.126ZM916.363 37.242L913.535 47H912.107L909.839 39.146L907.487 47L906.073 47.014L903.343 37.242H904.701L906.829 45.516L909.181 37.242H910.609L912.849 45.488L914.991 37.242H916.363ZM924.758 42.87C924.758 43.1127 924.744 43.3693 924.716 43.64H918.584C918.63 44.396 918.887 44.9887 919.354 45.418C919.83 45.838 920.404 46.048 921.076 46.048C921.626 46.048 922.084 45.922 922.448 45.67C922.821 45.4087 923.082 45.0633 923.232 44.634H924.604C924.398 45.3713 923.988 45.9733 923.372 46.44C922.756 46.8973 921.99 47.126 921.076 47.126C920.348 47.126 919.694 46.9627 919.116 46.636C918.546 46.3093 918.098 45.8473 917.772 45.25C917.445 44.6433 917.282 43.9433 917.282 43.15C917.282 42.3567 917.44 41.6613 917.758 41.064C918.075 40.4667 918.518 40.0093 919.088 39.692C919.666 39.3653 920.329 39.202 921.076 39.202C921.804 39.202 922.448 39.3607 923.008 39.678C923.568 39.9953 923.997 40.434 924.296 40.994C924.604 41.5447 924.758 42.17 924.758 42.87ZM923.442 42.604C923.442 42.1187 923.334 41.7033 923.12 41.358C922.905 41.0033 922.611 40.7373 922.238 40.56C921.874 40.3733 921.468 40.28 921.02 40.28C920.376 40.28 919.825 40.4853 919.368 40.896C918.92 41.3067 918.663 41.876 918.598 42.604H923.442ZM933.439 42.87C933.439 43.1127 933.425 43.3693 933.397 43.64H927.265C927.312 44.396 927.569 44.9887 928.035 45.418C928.511 45.838 929.085 46.048 929.757 46.048C930.308 46.048 930.765 45.922 931.129 45.67C931.503 45.4087 931.764 45.0633 931.913 44.634H933.285C933.08 45.3713 932.669 45.9733 932.053 46.44C931.437 46.8973 930.672 47.126 929.757 47.126C929.029 47.126 928.376 46.9627 927.797 46.636C927.228 46.3093 926.78 45.8473 926.453 45.25C926.127 44.6433 925.963 43.9433 925.963 43.15C925.963 42.3567 926.122 41.6613 926.439 41.064C926.757 40.4667 927.2 40.0093 927.769 39.692C928.348 39.3653 929.011 39.202 929.757 39.202C930.485 39.202 931.129 39.3607 931.689 39.678C932.249 39.9953 932.679 40.434 932.977 40.994C933.285 41.5447 933.439 42.17 933.439 42.87ZM932.123 42.604C932.123 42.1187 932.016 41.7033 931.801 41.358C931.587 41.0033 931.293 40.7373 930.919 40.56C930.555 40.3733 930.149 40.28 929.701 40.28C929.057 40.28 928.507 40.4853 928.049 40.896C927.601 41.3067 927.345 41.876 927.279 42.604H932.123ZM939.405 47L936.395 43.612V47H935.121V36.64H936.395V42.73L939.349 39.328H941.127L937.515 43.15L941.141 47H939.405Z" fill="#A098AE"/>
<path d="M872.486 66.722V63.86H877.472V77H874.268V66.722H872.486ZM881.324 77.144C880.784 77.144 880.34 76.988 879.992 76.676C879.656 76.352 879.488 75.956 879.488 75.488C879.488 75.008 879.656 74.606 879.992 74.282C880.34 73.958 880.784 73.796 881.324 73.796C881.852 73.796 882.284 73.958 882.62 74.282C882.968 74.606 883.142 75.008 883.142 75.488C883.142 75.956 882.968 76.352 882.62 76.676C882.284 76.988 881.852 77.144 881.324 77.144ZM884.55 74.534C884.958 74.21 885.144 74.06 885.108 74.084C886.284 73.112 887.208 72.314 887.88 71.69C888.564 71.066 889.14 70.412 889.608 69.728C890.076 69.044 890.31 68.378 890.31 67.73C890.31 67.238 890.196 66.854 889.968 66.578C889.74 66.302 889.398 66.164 888.942 66.164C888.486 66.164 888.126 66.338 887.862 66.686C887.61 67.022 887.484 67.502 887.484 68.126H884.514C884.538 67.106 884.754 66.254 885.162 65.57C885.582 64.886 886.128 64.382 886.8 64.058C887.484 63.734 888.24 63.572 889.068 63.572C890.496 63.572 891.57 63.938 892.29 64.67C893.022 65.402 893.388 66.356 893.388 67.532C893.388 68.816 892.95 70.01 892.074 71.114C891.198 72.206 890.082 73.274 888.726 74.318H893.586V76.82H884.55V74.534ZM895.013 74.66V72.176L900.701 64.04H904.139V71.996H905.615V74.66H904.139V77H901.061V74.66H895.013ZM901.277 67.424L898.253 71.996H901.277V67.424ZM916.375 66.542H910.759V69.026C910.999 68.762 911.335 68.546 911.767 68.378C912.199 68.21 912.667 68.126 913.171 68.126C914.071 68.126 914.815 68.33 915.402 68.738C916.003 69.146 916.441 69.674 916.717 70.322C916.993 70.97 917.131 71.672 917.131 72.428C917.131 73.832 916.735 74.948 915.943 75.776C915.151 76.592 914.035 77 912.595 77C911.635 77 910.801 76.838 910.093 76.514C909.385 76.178 908.839 75.716 908.455 75.128C908.071 74.54 907.861 73.862 907.825 73.094H910.831C910.903 73.466 911.076 73.778 911.353 74.03C911.629 74.27 912.007 74.39 912.487 74.39C913.051 74.39 913.471 74.21 913.747 73.85C914.023 73.49 914.161 73.01 914.161 72.41C914.161 71.822 914.017 71.372 913.729 71.06C913.441 70.748 913.021 70.592 912.469 70.592C912.061 70.592 911.725 70.694 911.461 70.898C911.197 71.09 911.022 71.348 910.938 71.672H907.969V63.842H916.375V66.542Z" fill="#303972"/>
<path d="M39.584 58.168C38.352 58.168 37.248 57.968 36.272 57.568C35.296 57.168 34.512 56.576 33.92 55.792C33.344 55.008 33.04 54.064 33.008 52.96H37.376C37.44 53.584 37.656 54.064 38.024 54.4C38.392 54.72 38.872 54.88 39.464 54.88C40.072 54.88 40.552 54.744 40.904 54.472C41.256 54.184 41.432 53.792 41.432 53.296C41.432 52.88 41.288 52.536 41 52.264C40.728 51.992 40.384 51.768 39.968 51.592C39.568 51.416 38.992 51.216 38.24 50.992C37.152 50.656 36.264 50.32 35.576 49.984C34.888 49.648 34.296 49.152 33.8 48.496C33.304 47.84 33.056 46.984 33.056 45.928C33.056 44.36 33.624 43.136 34.76 42.256C35.896 41.36 37.376 40.912 39.2 40.912C41.056 40.912 42.552 41.36 43.688 42.256C44.824 43.136 45.432 44.368 45.512 45.952H41.072C41.04 45.408 40.84 44.984 40.472 44.68C40.104 44.36 39.632 44.2 39.056 44.2C38.56 44.2 38.16 44.336 37.856 44.608C37.552 44.864 37.4 45.24 37.4 45.736C37.4 46.28 37.656 46.704 38.168 47.008C38.68 47.312 39.48 47.64 40.568 47.992C41.656 48.36 42.536 48.712 43.208 49.048C43.896 49.384 44.488 49.872 44.984 50.512C45.48 51.152 45.728 51.976 45.728 52.984C45.728 53.944 45.48 54.816 44.984 55.6C44.504 56.384 43.8 57.008 42.872 57.472C41.944 57.936 40.848 58.168 39.584 58.168ZM47.4376 51.304C47.4376 49.912 47.7176 48.696 48.2776 47.656C48.8536 46.616 49.6456 45.816 50.6536 45.256C51.6776 44.696 52.8456 44.416 54.1576 44.416C55.8376 44.416 57.2376 44.856 58.3576 45.736C59.4936 46.616 60.2376 47.856 60.5896 49.456H56.2216C55.8536 48.432 55.1416 47.92 54.0856 47.92C53.3336 47.92 52.7336 48.216 52.2856 48.808C51.8376 49.384 51.6136 50.216 51.6136 51.304C51.6136 52.392 51.8376 53.232 52.2856 53.824C52.7336 54.4 53.3336 54.688 54.0856 54.688C55.1416 54.688 55.8536 54.176 56.2216 53.152H60.5896C60.2376 54.72 59.4936 55.952 58.3576 56.848C57.2216 57.744 55.8216 58.192 54.1576 58.192C52.8456 58.192 51.6776 57.912 50.6536 57.352C49.6456 56.792 48.8536 55.992 48.2776 54.952C47.7176 53.912 47.4376 52.696 47.4376 51.304ZM71.0169 44.464C72.5529 44.464 73.7849 44.976 74.7129 46C75.6409 47.008 76.1049 48.4 76.1049 50.176V58H72.0249V50.728C72.0249 49.832 71.7929 49.136 71.3289 48.64C70.8649 48.144 70.2409 47.896 69.4569 47.896C68.6729 47.896 68.0489 48.144 67.5849 48.64C67.1209 49.136 66.8889 49.832 66.8889 50.728V58H62.7849V40.24H66.8889V46.408C67.3049 45.816 67.8729 45.344 68.5929 44.992C69.3129 44.64 70.1209 44.464 71.0169 44.464ZM85.0528 58.192C83.7408 58.192 82.5568 57.912 81.5008 57.352C80.4608 56.792 79.6368 55.992 79.0288 54.952C78.4368 53.912 78.1408 52.696 78.1408 51.304C78.1408 49.928 78.4448 48.72 79.0527 47.68C79.6608 46.624 80.4928 45.816 81.5488 45.256C82.6048 44.696 83.7888 44.416 85.1008 44.416C86.4128 44.416 87.5968 44.696 88.6528 45.256C89.7088 45.816 90.5408 46.624 91.1488 47.68C91.7568 48.72 92.0608 49.928 92.0608 51.304C92.0608 52.68 91.7488 53.896 91.1248 54.952C90.5168 55.992 89.6768 56.792 88.6048 57.352C87.5488 57.912 86.3648 58.192 85.0528 58.192ZM85.0528 54.64C85.8368 54.64 86.5008 54.352 87.0448 53.776C87.6048 53.2 87.8848 52.376 87.8848 51.304C87.8848 50.232 87.6128 49.408 87.0688 48.832C86.5408 48.256 85.8848 47.968 85.1008 47.968C84.3008 47.968 83.6368 48.256 83.1088 48.832C82.5808 49.392 82.3168 50.216 82.3168 51.304C82.3168 52.376 82.5728 53.2 83.0848 53.776C83.6128 54.352 84.2688 54.64 85.0528 54.64ZM100.334 58.192C99.022 58.192 97.838 57.912 96.782 57.352C95.742 56.792 94.918 55.992 94.31 54.952C93.718 53.912 93.422 52.696 93.422 51.304C93.422 49.928 93.726 48.72 94.334 47.68C94.942 46.624 95.774 45.816 96.83 45.256C97.886 44.696 99.07 44.416 100.382 44.416C101.694 44.416 102.878 44.696 103.934 45.256C104.99 45.816 105.822 46.624 106.43 47.68C107.038 48.72 107.342 49.928 107.342 51.304C107.342 52.68 107.03 53.896 106.406 54.952C105.798 55.992 104.958 56.792 103.886 57.352C102.83 57.912 101.646 58.192 100.334 58.192ZM100.334 54.64C101.118 54.64 101.782 54.352 102.326 53.776C102.886 53.2 103.166 52.376 103.166 51.304C103.166 50.232 102.894 49.408 102.35 48.832C101.822 48.256 101.166 47.968 100.382 47.968C99.582 47.968 98.918 48.256 98.39 48.832C97.862 49.392 97.598 50.216 97.598 51.304C97.598 52.376 97.854 53.2 98.366 53.776C98.894 54.352 99.55 54.64 100.334 54.64ZM113.623 40.24V58H109.519V40.24H113.623ZM134.523 46.576C134.523 47.552 134.299 48.448 133.851 49.264C133.403 50.064 132.715 50.712 131.787 51.208C130.859 51.704 129.707 51.952 128.331 51.952H125.787V58H121.683V41.152H128.331C129.675 41.152 130.811 41.384 131.739 41.848C132.667 42.312 133.363 42.952 133.827 43.768C134.291 44.584 134.523 45.52 134.523 46.576ZM128.019 48.688C128.803 48.688 129.387 48.504 129.771 48.136C130.155 47.768 130.347 47.248 130.347 46.576C130.347 45.904 130.155 45.384 129.771 45.016C129.387 44.648 128.803 44.464 128.019 44.464H125.787V48.688H128.019ZM149.284 51.088C149.284 51.472 149.26 51.872 149.212 52.288H139.924C139.988 53.12 140.252 53.76 140.716 54.208C141.196 54.64 141.78 54.856 142.468 54.856C143.492 54.856 144.204 54.424 144.604 53.56H148.972C148.748 54.44 148.34 55.232 147.748 55.936C147.172 56.64 146.444 57.192 145.564 57.592C144.684 57.992 143.7 58.192 142.612 58.192C141.3 58.192 140.132 57.912 139.108 57.352C138.084 56.792 137.284 55.992 136.708 54.952C136.132 53.912 135.844 52.696 135.844 51.304C135.844 49.912 136.124 48.696 136.684 47.656C137.26 46.616 138.06 45.816 139.084 45.256C140.108 44.696 141.284 44.416 142.612 44.416C143.908 44.416 145.06 44.688 146.068 45.232C147.076 45.776 147.86 46.552 148.42 47.56C148.996 48.568 149.284 49.744 149.284 51.088ZM145.084 50.008C145.084 49.304 144.844 48.744 144.364 48.328C143.884 47.912 143.284 47.704 142.564 47.704C141.876 47.704 141.292 47.904 140.812 48.304C140.348 48.704 140.06 49.272 139.948 50.008H145.084ZM155.553 46.84C156.033 46.104 156.633 45.528 157.353 45.112C158.073 44.68 158.873 44.464 159.753 44.464V48.808H158.625C157.601 48.808 156.833 49.032 156.321 49.48C155.809 49.912 155.553 50.68 155.553 51.784V58H151.449V44.608H155.553V46.84ZM168.435 48.016H166.227V58H162.123V48.016H160.635V44.608H162.123V44.224C162.123 42.576 162.595 41.328 163.539 40.48C164.483 39.616 165.867 39.184 167.691 39.184C167.995 39.184 168.219 39.192 168.363 39.208V42.688C167.579 42.64 167.027 42.752 166.707 43.024C166.387 43.296 166.227 43.784 166.227 44.488V44.608H168.435V48.016ZM176.459 58.192C175.147 58.192 173.963 57.912 172.907 57.352C171.867 56.792 171.043 55.992 170.435 54.952C169.843 53.912 169.547 52.696 169.547 51.304C169.547 49.928 169.851 48.72 170.459 47.68C171.067 46.624 171.899 45.816 172.955 45.256C174.011 44.696 175.195 44.416 176.507 44.416C177.819 44.416 179.003 44.696 180.059 45.256C181.115 45.816 181.947 46.624 182.555 47.68C183.163 48.72 183.467 49.928 183.467 51.304C183.467 52.68 183.155 53.896 182.531 54.952C181.923 55.992 181.083 56.792 180.011 57.352C178.955 57.912 177.771 58.192 176.459 58.192ZM176.459 54.64C177.243 54.64 177.907 54.352 178.451 53.776C179.011 53.2 179.291 52.376 179.291 51.304C179.291 50.232 179.019 49.408 178.475 48.832C177.947 48.256 177.291 47.968 176.507 47.968C175.707 47.968 175.043 48.256 174.515 48.832C173.987 49.392 173.723 50.216 173.723 51.304C173.723 52.376 173.979 53.2 174.491 53.776C175.019 54.352 175.675 54.64 176.459 54.64ZM189.748 46.84C190.228 46.104 190.828 45.528 191.548 45.112C192.268 44.68 193.068 44.464 193.948 44.464V48.808H192.82C191.796 48.808 191.028 49.032 190.516 49.48C190.004 49.912 189.748 50.68 189.748 51.784V58H185.644V44.608H189.748V46.84ZM212.998 44.464C214.662 44.464 215.982 44.968 216.958 45.976C217.95 46.984 218.446 48.384 218.446 50.176V58H214.366V50.728C214.366 49.864 214.134 49.2 213.67 48.736C213.222 48.256 212.598 48.016 211.798 48.016C210.998 48.016 210.366 48.256 209.902 48.736C209.454 49.2 209.23 49.864 209.23 50.728V58H205.15V50.728C205.15 49.864 204.918 49.2 204.454 48.736C204.006 48.256 203.382 48.016 202.582 48.016C201.782 48.016 201.15 48.256 200.686 48.736C200.238 49.2 200.014 49.864 200.014 50.728V58H195.91V44.608H200.014V46.288C200.43 45.728 200.974 45.288 201.646 44.968C202.318 44.632 203.078 44.464 203.926 44.464C204.934 44.464 205.83 44.68 206.614 45.112C207.414 45.544 208.038 46.16 208.486 46.96C208.95 46.224 209.582 45.624 210.382 45.16C211.182 44.696 212.054 44.464 212.998 44.464ZM220.5 51.28C220.5 49.904 220.756 48.696 221.268 47.656C221.796 46.616 222.508 45.816 223.404 45.256C224.3 44.696 225.3 44.416 226.404 44.416C227.348 44.416 228.172 44.608 228.876 44.992C229.596 45.376 230.148 45.88 230.532 46.504V44.608H234.636V58H230.532V56.104C230.132 56.728 229.572 57.232 228.852 57.616C228.148 58 227.324 58.192 226.38 58.192C225.292 58.192 224.3 57.912 223.404 57.352C222.508 56.776 221.796 55.968 221.268 54.928C220.756 53.872 220.5 52.656 220.5 51.28ZM230.532 51.304C230.532 50.28 230.244 49.472 229.668 48.88C229.108 48.288 228.42 47.992 227.604 47.992C226.788 47.992 226.092 48.288 225.516 48.88C224.956 49.456 224.676 50.256 224.676 51.28C224.676 52.304 224.956 53.12 225.516 53.728C226.092 54.32 226.788 54.616 227.604 54.616C228.42 54.616 229.108 54.32 229.668 53.728C230.244 53.136 230.532 52.328 230.532 51.304ZM245.765 44.464C247.333 44.464 248.581 44.976 249.509 46C250.453 47.008 250.925 48.4 250.925 50.176V58H246.845V50.728C246.845 49.832 246.613 49.136 246.149 48.64C245.685 48.144 245.061 47.896 244.277 47.896C243.493 47.896 242.869 48.144 242.405 48.64C241.941 49.136 241.709 49.832 241.709 50.728V58H237.605V44.608H241.709V46.384C242.125 45.792 242.685 45.328 243.389 44.992C244.093 44.64 244.885 44.464 245.765 44.464ZM252.961 51.304C252.961 49.912 253.241 48.696 253.801 47.656C254.377 46.616 255.169 45.816 256.177 45.256C257.201 44.696 258.369 44.416 259.681 44.416C261.361 44.416 262.761 44.856 263.881 45.736C265.017 46.616 265.761 47.856 266.113 49.456H261.745C261.377 48.432 260.665 47.92 259.609 47.92C258.857 47.92 258.257 48.216 257.809 48.808C257.361 49.384 257.137 50.216 257.137 51.304C257.137 52.392 257.361 53.232 257.809 53.824C258.257 54.4 258.857 54.688 259.609 54.688C260.665 54.688 261.377 54.176 261.745 53.152H266.113C265.761 54.72 265.017 55.952 263.881 56.848C262.745 57.744 261.345 58.192 259.681 58.192C258.369 58.192 257.201 57.912 256.177 57.352C255.169 56.792 254.377 55.992 253.801 54.952C253.241 53.912 252.961 52.696 252.961 51.304ZM280.932 51.088C280.932 51.472 280.908 51.872 280.86 52.288H271.572C271.636 53.12 271.9 53.76 272.364 54.208C272.844 54.64 273.428 54.856 274.116 54.856C275.14 54.856 275.852 54.424 276.252 53.56H280.62C280.396 54.44 279.988 55.232 279.396 55.936C278.82 56.64 278.092 57.192 277.212 57.592C276.332 57.992 275.348 58.192 274.26 58.192C272.948 58.192 271.78 57.912 270.756 57.352C269.732 56.792 268.932 55.992 268.356 54.952C267.78 53.912 267.492 52.696 267.492 51.304C267.492 49.912 267.772 48.696 268.332 47.656C268.908 46.616 269.708 45.816 270.732 45.256C271.756 44.696 272.932 44.416 274.26 44.416C275.556 44.416 276.708 44.688 277.716 45.232C278.724 45.776 279.508 46.552 280.068 47.56C280.644 48.568 280.932 49.744 280.932 51.088ZM276.732 50.008C276.732 49.304 276.492 48.744 276.012 48.328C275.532 47.912 274.932 47.704 274.212 47.704C273.524 47.704 272.94 47.904 272.46 48.304C271.996 48.704 271.708 49.272 271.596 50.008H276.732Z" fill="#303972"/>
<path d="M99 108V390" stroke="#C1BBEB"/>
<path d="M181 108V390" stroke="#C1BBEB"/>
<path d="M267 108V390" stroke="#C1BBEB"/>
<path d="M352 108V390" stroke="#C1BBEB"/>
<path d="M438 108V390" stroke="#C1BBEB"/>
<path d="M523 108V390" stroke="#C1BBEB"/>
<path d="M601 108V390" stroke="#C1BBEB"/>
<path d="M682 108V390" stroke="#C1BBEB"/>
<path d="M768 108V390" stroke="#C1BBEB"/>
<path d="M852 108V390" stroke="#C1BBEB"/>
<path d="M937 108V390" stroke="#C1BBEB"/>
<path d="M1023 108V390" stroke="#C1BBEB"/>
<path d="M601 226L601 390" stroke="#303972" stroke-dasharray="5 5"/>
<path d="M93.704 425.285V434.555C93.704 435.587 93.386 436.415 92.75 437.039C92.114 437.651 91.274 437.957 90.23 437.957C89.174 437.957 88.328 437.645 87.692 437.021C87.056 436.385 86.738 435.521 86.738 434.429H88.376C88.388 435.041 88.544 435.539 88.844 435.923C89.156 436.307 89.618 436.499 90.23 436.499C90.842 436.499 91.298 436.319 91.598 435.959C91.898 435.587 92.048 435.119 92.048 434.555V425.285H93.704ZM96.3189 432.863C96.3189 431.855 96.5229 430.973 96.9309 430.217C97.3389 429.449 97.8969 428.855 98.6049 428.435C99.3249 428.015 100.123 427.805 100.999 427.805C101.863 427.805 102.613 427.991 103.249 428.363C103.885 428.735 104.359 429.203 104.671 429.767V427.967H106.327V437.831H104.671V435.995C104.347 436.571 103.861 437.051 103.213 437.435C102.577 437.807 101.833 437.993 100.981 437.993C100.105 437.993 99.3129 437.777 98.6049 437.345C97.8969 436.913 97.3389 436.307 96.9309 435.527C96.5229 434.747 96.3189 433.859 96.3189 432.863ZM104.671 432.881C104.671 432.137 104.521 431.489 104.221 430.937C103.921 430.385 103.513 429.965 102.997 429.677C102.493 429.377 101.935 429.227 101.323 429.227C100.711 429.227 100.153 429.371 99.6489 429.659C99.1449 429.947 98.7429 430.367 98.4429 430.919C98.1429 431.471 97.9929 432.119 97.9929 432.863C97.9929 433.619 98.1429 434.279 98.4429 434.843C98.7429 435.395 99.1449 435.821 99.6489 436.121C100.153 436.409 100.711 436.553 101.323 436.553C101.935 436.553 102.493 436.409 102.997 436.121C103.513 435.821 103.921 435.395 104.221 434.843C104.521 434.279 104.671 433.625 104.671 432.881ZM113.901 427.787C115.101 427.787 116.073 428.153 116.817 428.885C117.561 429.605 117.933 430.649 117.933 432.017V437.831H116.313V432.251C116.313 431.267 116.067 430.517 115.575 430.001C115.083 429.473 114.411 429.209 113.559 429.209C112.695 429.209 112.005 429.479 111.489 430.019C110.985 430.559 110.733 431.345 110.733 432.377V437.831H109.095V427.967H110.733V429.371C111.057 428.867 111.495 428.477 112.047 428.201C112.611 427.925 113.229 427.787 113.901 427.787Z" fill="#A098AE"/>
<path d="M178.478 425.285V426.617H173.024V430.847H177.452V432.179H173.024V437.831H171.386V425.285H178.478ZM189.456 432.521C189.456 432.833 189.438 433.163 189.402 433.511H181.518C181.578 434.483 181.908 435.245 182.508 435.797C183.12 436.337 183.858 436.607 184.722 436.607C185.43 436.607 186.018 436.445 186.486 436.121C186.966 435.785 187.302 435.341 187.494 434.789H189.258C188.994 435.737 188.466 436.511 187.674 437.111C186.882 437.699 185.898 437.993 184.722 437.993C183.786 437.993 182.946 437.783 182.202 437.363C181.47 436.943 180.894 436.349 180.474 435.581C180.054 434.801 179.844 433.901 179.844 432.881C179.844 431.861 180.048 430.967 180.456 430.199C180.864 429.431 181.434 428.843 182.166 428.435C182.91 428.015 183.762 427.805 184.722 427.805C185.658 427.805 186.486 428.009 187.206 428.417C187.926 428.825 188.478 429.389 188.862 430.109C189.258 430.817 189.456 431.621 189.456 432.521ZM187.764 432.179C187.764 431.555 187.626 431.021 187.35 430.577C187.074 430.121 186.696 429.779 186.216 429.551C185.748 429.311 185.226 429.191 184.65 429.191C183.822 429.191 183.114 429.455 182.526 429.983C181.95 430.511 181.62 431.243 181.536 432.179H187.764ZM193.256 429.803C193.592 429.215 194.084 428.735 194.732 428.363C195.38 427.991 196.118 427.805 196.946 427.805C197.834 427.805 198.632 428.015 199.34 428.435C200.048 428.855 200.606 429.449 201.014 430.217C201.422 430.973 201.626 431.855 201.626 432.863C201.626 433.859 201.422 434.747 201.014 435.527C200.606 436.307 200.042 436.913 199.322 437.345C198.614 437.777 197.822 437.993 196.946 437.993C196.094 437.993 195.344 437.807 194.696 437.435C194.06 437.063 193.58 436.589 193.256 436.013V437.831H191.618V424.511H193.256V429.803ZM199.952 432.863C199.952 432.119 199.802 431.471 199.502 430.919C199.202 430.367 198.794 429.947 198.278 429.659C197.774 429.371 197.216 429.227 196.604 429.227C196.004 429.227 195.446 429.377 194.93 429.677C194.426 429.965 194.018 430.391 193.706 430.955C193.406 431.507 193.256 432.149 193.256 432.881C193.256 433.625 193.406 434.279 193.706 434.843C194.018 435.395 194.426 435.821 194.93 436.121C195.446 436.409 196.004 436.553 196.604 436.553C197.216 436.553 197.774 436.409 198.278 436.121C198.794 435.821 199.202 435.395 199.502 434.843C199.802 434.279 199.952 433.619 199.952 432.863Z" fill="#A098AE"/>
<path d="M267.112 425.375V437.831H265.474V428.543L261.334 437.831H260.182L256.024 428.525V437.831H254.386V425.375H256.15L260.758 435.671L265.366 425.375H267.112ZM269.278 432.863C269.278 431.855 269.482 430.973 269.89 430.217C270.298 429.449 270.856 428.855 271.564 428.435C272.284 428.015 273.082 427.805 273.958 427.805C274.822 427.805 275.572 427.991 276.208 428.363C276.844 428.735 277.318 429.203 277.63 429.767V427.967H279.286V437.831H277.63V435.995C277.306 436.571 276.82 437.051 276.172 437.435C275.536 437.807 274.792 437.993 273.94 437.993C273.064 437.993 272.272 437.777 271.564 437.345C270.856 436.913 270.298 436.307 269.89 435.527C269.482 434.747 269.278 433.859 269.278 432.863ZM277.63 432.881C277.63 432.137 277.48 431.489 277.18 430.937C276.88 430.385 276.472 429.965 275.956 429.677C275.452 429.377 274.894 429.227 274.282 429.227C273.67 429.227 273.112 429.371 272.608 429.659C272.104 429.947 271.702 430.367 271.402 430.919C271.102 431.471 270.952 432.119 270.952 432.863C270.952 433.619 271.102 434.279 271.402 434.843C271.702 435.395 272.104 435.821 272.608 436.121C273.112 436.409 273.67 436.553 274.282 436.553C274.894 436.553 275.452 436.409 275.956 436.121C276.472 435.821 276.88 435.395 277.18 434.843C277.48 434.279 277.63 433.625 277.63 432.881ZM283.692 429.569C283.98 429.005 284.388 428.567 284.916 428.255C285.456 427.943 286.11 427.787 286.878 427.787V429.479H286.446C284.61 429.479 283.692 430.475 283.692 432.467V437.831H282.054V427.967H283.692V429.569Z" fill="#A098AE"/>
<path d="M346.802 435.041H341.33L340.322 437.831H338.594L343.13 425.357H345.02L349.538 437.831H347.81L346.802 435.041ZM346.334 433.709L344.066 427.373L341.798 433.709H346.334ZM353.153 429.785C353.477 429.221 353.957 428.753 354.593 428.381C355.241 427.997 355.991 427.805 356.843 427.805C357.719 427.805 358.511 428.015 359.219 428.435C359.939 428.855 360.503 429.449 360.911 430.217C361.319 430.973 361.523 431.855 361.523 432.863C361.523 433.859 361.319 434.747 360.911 435.527C360.503 436.307 359.939 436.913 359.219 437.345C358.511 437.777 357.719 437.993 356.843 437.993C356.003 437.993 355.259 437.807 354.611 437.435C353.975 437.051 353.489 436.577 353.153 436.013V442.511H351.515V427.967H353.153V429.785ZM359.849 432.863C359.849 432.119 359.699 431.471 359.399 430.919C359.099 430.367 358.691 429.947 358.175 429.659C357.671 429.371 357.113 429.227 356.501 429.227C355.901 429.227 355.343 429.377 354.827 429.677C354.323 429.965 353.915 430.391 353.603 430.955C353.303 431.507 353.153 432.149 353.153 432.881C353.153 433.625 353.303 434.279 353.603 434.843C353.915 435.395 354.323 435.821 354.827 436.121C355.343 436.409 355.901 436.553 356.501 436.553C357.113 436.553 357.671 436.409 358.175 436.121C358.691 435.821 359.099 435.395 359.399 434.843C359.699 434.279 359.849 433.619 359.849 432.863ZM365.317 429.569C365.605 429.005 366.013 428.567 366.541 428.255C367.081 427.943 367.735 427.787 368.503 427.787V429.479H368.071C366.235 429.479 365.317 430.475 365.317 432.467V437.831H363.679V427.967H365.317V429.569Z" fill="#A098AE"/>
<path d="M434.112 425.375V437.831H432.474V428.543L428.334 437.831H427.182L423.024 428.525V437.831H421.386V425.375H423.15L427.758 435.671L432.366 425.375H434.112ZM436.278 432.863C436.278 431.855 436.482 430.973 436.89 430.217C437.298 429.449 437.856 428.855 438.564 428.435C439.284 428.015 440.082 427.805 440.958 427.805C441.822 427.805 442.572 427.991 443.208 428.363C443.844 428.735 444.318 429.203 444.63 429.767V427.967H446.286V437.831H444.63V435.995C444.306 436.571 443.82 437.051 443.172 437.435C442.536 437.807 441.792 437.993 440.94 437.993C440.064 437.993 439.272 437.777 438.564 437.345C437.856 436.913 437.298 436.307 436.89 435.527C436.482 434.747 436.278 433.859 436.278 432.863ZM444.63 432.881C444.63 432.137 444.48 431.489 444.18 430.937C443.88 430.385 443.472 429.965 442.956 429.677C442.452 429.377 441.894 429.227 441.282 429.227C440.67 429.227 440.112 429.371 439.608 429.659C439.104 429.947 438.702 430.367 438.402 430.919C438.102 431.471 437.952 432.119 437.952 432.863C437.952 433.619 438.102 434.279 438.402 434.843C438.702 435.395 439.104 435.821 439.608 436.121C440.112 436.409 440.67 436.553 441.282 436.553C441.894 436.553 442.452 436.409 442.956 436.121C443.472 435.821 443.88 435.395 444.18 434.843C444.48 434.279 444.63 433.625 444.63 432.881ZM457.55 427.967L451.61 442.475H449.918L451.862 437.723L447.884 427.967H449.702L452.798 435.959L455.858 427.967H457.55Z" fill="#A098AE"/>
<path d="M515.704 425.285V434.555C515.704 435.587 515.386 436.415 514.75 437.039C514.114 437.651 513.274 437.957 512.23 437.957C511.174 437.957 510.328 437.645 509.692 437.021C509.056 436.385 508.738 435.521 508.738 434.429H510.376C510.388 435.041 510.544 435.539 510.844 435.923C511.156 436.307 511.618 436.499 512.23 436.499C512.842 436.499 513.298 436.319 513.598 435.959C513.898 435.587 514.048 435.119 514.048 434.555V425.285H515.704ZM527.679 427.967V437.831H526.041V436.373C525.729 436.877 525.291 437.273 524.727 437.561C524.175 437.837 523.563 437.975 522.891 437.975C522.123 437.975 521.433 437.819 520.821 437.507C520.209 437.183 519.723 436.703 519.363 436.067C519.015 435.431 518.841 434.657 518.841 433.745V427.967H520.461V433.529C520.461 434.501 520.707 435.251 521.199 435.779C521.691 436.295 522.363 436.553 523.215 436.553C524.091 436.553 524.781 436.283 525.285 435.743C525.789 435.203 526.041 434.417 526.041 433.385V427.967H527.679ZM535.251 427.787C536.451 427.787 537.423 428.153 538.167 428.885C538.911 429.605 539.283 430.649 539.283 432.017V437.831H537.663V432.251C537.663 431.267 537.417 430.517 536.925 430.001C536.433 429.473 535.761 429.209 534.909 429.209C534.045 429.209 533.355 429.479 532.839 430.019C532.335 430.559 532.083 431.345 532.083 432.377V437.831H530.445V427.967H532.083V429.371C532.407 428.867 532.845 428.477 533.397 428.201C533.961 427.925 534.579 427.787 535.251 427.787Z" fill="#A098AE"/>
<path d="M598.704 425.285V434.555C598.704 435.587 598.386 436.415 597.75 437.039C597.114 437.651 596.274 437.957 595.23 437.957C594.174 437.957 593.328 437.645 592.692 437.021C592.056 436.385 591.738 435.521 591.738 434.429H593.376C593.388 435.041 593.544 435.539 593.844 435.923C594.156 436.307 594.618 436.499 595.23 436.499C595.842 436.499 596.298 436.319 596.598 435.959C596.898 435.587 597.048 435.119 597.048 434.555V425.285H598.704ZM610.679 427.967V437.831H609.041V436.373C608.729 436.877 608.291 437.273 607.727 437.561C607.175 437.837 606.563 437.975 605.891 437.975C605.123 437.975 604.433 437.819 603.821 437.507C603.209 437.183 602.723 436.703 602.363 436.067C602.015 435.431 601.841 434.657 601.841 433.745V427.967H603.461V433.529C603.461 434.501 603.707 435.251 604.199 435.779C604.691 436.295 605.363 436.553 606.215 436.553C607.091 436.553 607.781 436.283 608.285 435.743C608.789 435.203 609.041 434.417 609.041 433.385V427.967H610.679ZM615.083 424.511V437.831H613.445V424.511H615.083Z" fill="#303972"/>
<path d="M675.802 435.041H670.33L669.322 437.831H667.594L672.13 425.357H674.02L678.538 437.831H676.81L675.802 435.041ZM675.334 433.709L673.066 427.373L670.798 433.709H675.334ZM689.263 427.967V437.831H687.625V436.373C687.313 436.877 686.875 437.273 686.311 437.561C685.759 437.837 685.147 437.975 684.475 437.975C683.707 437.975 683.017 437.819 682.405 437.507C681.793 437.183 681.307 436.703 680.947 436.067C680.599 435.431 680.425 434.657 680.425 433.745V427.967H682.045V433.529C682.045 434.501 682.291 435.251 682.783 435.779C683.275 436.295 683.947 436.553 684.799 436.553C685.675 436.553 686.365 436.283 686.869 435.743C687.373 435.203 687.625 434.417 687.625 433.385V427.967H689.263ZM696.097 427.805C696.949 427.805 697.693 427.991 698.329 428.363C698.977 428.735 699.457 429.203 699.769 429.767V427.967H701.425V438.047C701.425 438.947 701.233 439.745 700.849 440.441C700.465 441.149 699.913 441.701 699.193 442.097C698.485 442.493 697.657 442.691 696.709 442.691C695.413 442.691 694.333 442.385 693.469 441.773C692.605 441.161 692.095 440.327 691.939 439.271H693.559C693.739 439.871 694.111 440.351 694.675 440.711C695.239 441.083 695.917 441.269 696.709 441.269C697.609 441.269 698.341 440.987 698.905 440.423C699.481 439.859 699.769 439.067 699.769 438.047V435.977C699.445 436.553 698.965 437.033 698.329 437.417C697.693 437.801 696.949 437.993 696.097 437.993C695.221 437.993 694.423 437.777 693.703 437.345C692.995 436.913 692.437 436.307 692.029 435.527C691.621 434.747 691.417 433.859 691.417 432.863C691.417 431.855 691.621 430.973 692.029 430.217C692.437 429.449 692.995 428.855 693.703 428.435C694.423 428.015 695.221 427.805 696.097 427.805ZM699.769 432.881C699.769 432.137 699.619 431.489 699.319 430.937C699.019 430.385 698.611 429.965 698.095 429.677C697.591 429.377 697.033 429.227 696.421 429.227C695.809 429.227 695.251 429.371 694.747 429.659C694.243 429.947 693.841 430.367 693.541 430.919C693.241 431.471 693.091 432.119 693.091 432.863C693.091 433.619 693.241 434.279 693.541 434.843C693.841 435.395 694.243 435.821 694.747 436.121C695.251 436.409 695.809 436.553 696.421 436.553C697.033 436.553 697.591 436.409 698.095 436.121C698.611 435.821 699.019 435.395 699.319 434.843C699.619 434.279 699.769 433.625 699.769 432.881Z" fill="#A098AE"/>
<path d="M758.364 437.957C757.536 437.957 756.792 437.813 756.132 437.525C755.484 437.225 754.974 436.817 754.602 436.301C754.23 435.773 754.038 435.167 754.026 434.483H755.772C755.832 435.071 756.072 435.569 756.492 435.977C756.924 436.373 757.548 436.571 758.364 436.571C759.144 436.571 759.756 436.379 760.2 435.995C760.656 435.599 760.884 435.095 760.884 434.483C760.884 434.003 760.752 433.613 760.488 433.313C760.224 433.013 759.894 432.785 759.498 432.629C759.102 432.473 758.568 432.305 757.896 432.125C757.068 431.909 756.402 431.693 755.898 431.477C755.406 431.261 754.98 430.925 754.62 430.469C754.272 430.001 754.098 429.377 754.098 428.597C754.098 427.913 754.272 427.307 754.62 426.779C754.968 426.251 755.454 425.843 756.078 425.555C756.714 425.267 757.44 425.123 758.256 425.123C759.432 425.123 760.392 425.417 761.136 426.005C761.892 426.593 762.318 427.373 762.414 428.345H760.614C760.554 427.865 760.302 427.445 759.858 427.085C759.414 426.713 758.826 426.527 758.094 426.527C757.41 426.527 756.852 426.707 756.42 427.067C755.988 427.415 755.772 427.907 755.772 428.543C755.772 428.999 755.898 429.371 756.15 429.659C756.414 429.947 756.732 430.169 757.104 430.325C757.488 430.469 758.022 430.637 758.706 430.829C759.534 431.057 760.2 431.285 760.704 431.513C761.208 431.729 761.64 432.071 762 432.539C762.36 432.995 762.54 433.619 762.54 434.411C762.54 435.023 762.378 435.599 762.054 436.139C761.73 436.679 761.25 437.117 760.614 437.453C759.978 437.789 759.228 437.957 758.364 437.957ZM773.95 432.521C773.95 432.833 773.932 433.163 773.896 433.511H766.012C766.072 434.483 766.402 435.245 767.002 435.797C767.614 436.337 768.352 436.607 769.216 436.607C769.924 436.607 770.512 436.445 770.98 436.121C771.46 435.785 771.796 435.341 771.988 434.789H773.752C773.488 435.737 772.96 436.511 772.168 437.111C771.376 437.699 770.392 437.993 769.216 437.993C768.28 437.993 767.44 437.783 766.696 437.363C765.964 436.943 765.388 436.349 764.968 435.581C764.548 434.801 764.338 433.901 764.338 432.881C764.338 431.861 764.542 430.967 764.95 430.199C765.358 429.431 765.928 428.843 766.66 428.435C767.404 428.015 768.256 427.805 769.216 427.805C770.152 427.805 770.98 428.009 771.7 428.417C772.42 428.825 772.972 429.389 773.356 430.109C773.752 430.817 773.95 431.621 773.95 432.521ZM772.258 432.179C772.258 431.555 772.12 431.021 771.844 430.577C771.568 430.121 771.19 429.779 770.71 429.551C770.242 429.311 769.72 429.191 769.144 429.191C768.316 429.191 767.608 429.455 767.02 429.983C766.444 430.511 766.114 431.243 766.03 432.179H772.258ZM777.751 429.785C778.075 429.221 778.555 428.753 779.191 428.381C779.839 427.997 780.589 427.805 781.441 427.805C782.317 427.805 783.109 428.015 783.817 428.435C784.537 428.855 785.101 429.449 785.509 430.217C785.917 430.973 786.121 431.855 786.121 432.863C786.121 433.859 785.917 434.747 785.509 435.527C785.101 436.307 784.537 436.913 783.817 437.345C783.109 437.777 782.317 437.993 781.441 437.993C780.601 437.993 779.857 437.807 779.209 437.435C778.573 437.051 778.087 436.577 777.751 436.013V442.511H776.113V427.967H777.751V429.785ZM784.447 432.863C784.447 432.119 784.297 431.471 783.997 430.919C783.697 430.367 783.289 429.947 782.773 429.659C782.269 429.371 781.711 429.227 781.099 429.227C780.499 429.227 779.941 429.377 779.425 429.677C778.921 429.965 778.513 430.391 778.201 430.955C777.901 431.507 777.751 432.149 777.751 432.881C777.751 433.625 777.901 434.279 778.201 434.843C778.513 435.395 778.921 435.821 779.425 436.121C779.941 436.409 780.499 436.553 781.099 436.553C781.711 436.553 782.269 436.409 782.773 436.121C783.289 435.821 783.697 435.395 783.997 434.843C784.297 434.279 784.447 433.619 784.447 432.863Z" fill="#A098AE"/>
<path d="M844.074 437.957C842.91 437.957 841.848 437.687 840.888 437.147C839.928 436.595 839.166 435.833 838.602 434.861C838.05 433.877 837.774 432.773 837.774 431.549C837.774 430.325 838.05 429.227 838.602 428.255C839.166 427.271 839.928 426.509 840.888 425.969C841.848 425.417 842.91 425.141 844.074 425.141C845.25 425.141 846.318 425.417 847.278 425.969C848.238 426.509 848.994 427.265 849.546 428.237C850.098 429.209 850.374 430.313 850.374 431.549C850.374 432.785 850.098 433.889 849.546 434.861C848.994 435.833 848.238 436.595 847.278 437.147C846.318 437.687 845.25 437.957 844.074 437.957ZM844.074 436.535C844.95 436.535 845.736 436.331 846.432 435.923C847.14 435.515 847.692 434.933 848.088 434.177C848.496 433.421 848.7 432.545 848.7 431.549C848.7 430.541 848.496 429.665 848.088 428.921C847.692 428.165 847.146 427.583 846.45 427.175C845.754 426.767 844.962 426.563 844.074 426.563C843.186 426.563 842.394 426.767 841.698 427.175C841.002 427.583 840.45 428.165 840.042 428.921C839.646 429.665 839.448 430.541 839.448 431.549C839.448 432.545 839.646 433.421 840.042 434.177C840.45 434.933 841.002 435.515 841.698 435.923C842.406 436.331 843.198 436.535 844.074 436.535ZM851.924 432.881C851.924 431.861 852.128 430.973 852.536 430.217C852.944 429.449 853.508 428.855 854.228 428.435C854.96 428.015 855.794 427.805 856.73 427.805C857.942 427.805 858.938 428.099 859.718 428.687C860.51 429.275 861.032 430.091 861.284 431.135H859.52C859.352 430.535 859.022 430.061 858.53 429.713C858.05 429.365 857.45 429.191 856.73 429.191C855.794 429.191 855.038 429.515 854.462 430.163C853.886 430.799 853.598 431.705 853.598 432.881C853.598 434.069 853.886 434.987 854.462 435.635C855.038 436.283 855.794 436.607 856.73 436.607C857.45 436.607 858.05 436.439 858.53 436.103C859.01 435.767 859.34 435.287 859.52 434.663H861.284C861.02 435.671 860.492 436.481 859.7 437.093C858.908 437.693 857.918 437.993 856.73 437.993C855.794 437.993 854.96 437.783 854.228 437.363C853.508 436.943 852.944 436.349 852.536 435.581C852.128 434.813 851.924 433.913 851.924 432.881ZM865.468 429.317V435.131C865.468 435.611 865.57 435.953 865.774 436.157C865.978 436.349 866.332 436.445 866.836 436.445H868.042V437.831H866.566C865.654 437.831 864.97 437.621 864.514 437.201C864.058 436.781 863.83 436.091 863.83 435.131V429.317H862.552V427.967H863.83V425.483H865.468V427.967H868.042V429.317H865.468Z" fill="#A098AE"/>
<path d="M930.25 437.831H928.612L922.024 427.841V437.831H920.386V425.267H922.024L928.612 435.239V425.267H930.25V437.831ZM937.344 437.993C936.42 437.993 935.58 437.783 934.824 437.363C934.08 436.943 933.492 436.349 933.06 435.581C932.64 434.801 932.43 433.901 932.43 432.881C932.43 431.873 932.646 430.985 933.078 430.217C933.522 429.437 934.122 428.843 934.878 428.435C935.634 428.015 936.48 427.805 937.416 427.805C938.352 427.805 939.198 428.015 939.954 428.435C940.71 428.843 941.304 429.431 941.736 430.199C942.18 430.967 942.402 431.861 942.402 432.881C942.402 433.901 942.174 434.801 941.718 435.581C941.274 436.349 940.668 436.943 939.9 437.363C939.132 437.783 938.28 437.993 937.344 437.993ZM937.344 436.553C937.932 436.553 938.484 436.415 939 436.139C939.516 435.863 939.93 435.449 940.242 434.897C940.566 434.345 940.728 433.673 940.728 432.881C940.728 432.089 940.572 431.417 940.26 430.865C939.948 430.313 939.54 429.905 939.036 429.641C938.532 429.365 937.986 429.227 937.398 429.227C936.798 429.227 936.246 429.365 935.742 429.641C935.25 429.905 934.854 430.313 934.554 430.865C934.254 431.417 934.104 432.089 934.104 432.881C934.104 433.685 934.248 434.363 934.536 434.915C934.836 435.467 935.232 435.881 935.724 436.157C936.216 436.421 936.756 436.553 937.344 436.553ZM948.228 436.319L951.288 427.967H953.034L949.164 437.831H947.256L943.386 427.967H945.15L948.228 436.319Z" fill="#A098AE"/>
<path d="M1009.29 425.285C1010.66 425.285 1011.84 425.543 1012.84 426.059C1013.85 426.563 1014.61 427.289 1015.14 428.237C1015.68 429.185 1015.95 430.301 1015.95 431.585C1015.95 432.869 1015.68 433.985 1015.14 434.933C1014.61 435.869 1013.85 436.589 1012.84 437.093C1011.84 437.585 1010.66 437.831 1009.29 437.831H1005.39V425.285H1009.29ZM1009.29 436.481C1010.91 436.481 1012.15 436.055 1013 435.203C1013.85 434.339 1014.28 433.133 1014.28 431.585C1014.28 430.025 1013.85 428.807 1012.98 427.931C1012.13 427.055 1010.9 426.617 1009.29 426.617H1007.02V436.481H1009.29ZM1027.11 432.521C1027.11 432.833 1027.09 433.163 1027.06 433.511H1019.17C1019.23 434.483 1019.56 435.245 1020.16 435.797C1020.78 436.337 1021.51 436.607 1022.38 436.607C1023.09 436.607 1023.67 436.445 1024.14 436.121C1024.62 435.785 1024.96 435.341 1025.15 434.789H1026.91C1026.65 435.737 1026.12 436.511 1025.33 437.111C1024.54 437.699 1023.55 437.993 1022.38 437.993C1021.44 437.993 1020.6 437.783 1019.86 437.363C1019.13 436.943 1018.55 436.349 1018.13 435.581C1017.71 434.801 1017.5 433.901 1017.5 432.881C1017.5 431.861 1017.7 430.967 1018.11 430.199C1018.52 429.431 1019.09 428.843 1019.82 428.435C1020.57 428.015 1021.42 427.805 1022.38 427.805C1023.31 427.805 1024.14 428.009 1024.86 428.417C1025.58 428.825 1026.13 429.389 1026.52 430.109C1026.91 430.817 1027.11 431.621 1027.11 432.521ZM1025.42 432.179C1025.42 431.555 1025.28 431.021 1025.01 430.577C1024.73 430.121 1024.35 429.779 1023.87 429.551C1023.4 429.311 1022.88 429.191 1022.31 429.191C1021.48 429.191 1020.77 429.455 1020.18 429.983C1019.61 430.511 1019.28 431.243 1019.19 432.179H1025.42ZM1028.66 432.881C1028.66 431.861 1028.87 430.973 1029.27 430.217C1029.68 429.449 1030.25 428.855 1030.97 428.435C1031.7 428.015 1032.53 427.805 1033.47 427.805C1034.68 427.805 1035.68 428.099 1036.46 428.687C1037.25 429.275 1037.77 430.091 1038.02 431.135H1036.26C1036.09 430.535 1035.76 430.061 1035.27 429.713C1034.79 429.365 1034.19 429.191 1033.47 429.191C1032.53 429.191 1031.78 429.515 1031.2 430.163C1030.62 430.799 1030.34 431.705 1030.34 432.881C1030.34 434.069 1030.62 434.987 1031.2 435.635C1031.78 436.283 1032.53 436.607 1033.47 436.607C1034.19 436.607 1034.79 436.439 1035.27 436.103C1035.75 435.767 1036.08 435.287 1036.26 434.663H1038.02C1037.76 435.671 1037.23 436.481 1036.44 437.093C1035.65 437.693 1034.66 437.993 1033.47 437.993C1032.53 437.993 1031.7 437.783 1030.97 437.363C1030.25 436.943 1029.68 436.349 1029.27 435.581C1028.87 434.813 1028.66 433.913 1028.66 432.881Z" fill="#A098AE"/>
<path d="M100 373.391C157.213 373.391 203.112 169.164 267 169.164C330.888 169.164 366.335 387.664 438 387.664C509.665 387.664 540.903 254.164 601 254.164C661.097 254.164 702.695 313.164 766.5 313.164C830.305 313.164 875.627 192.164 936.5 192.164C997.373 192.164 963.5 234.681 1024 234.681" stroke="#FCC43E" stroke-width="6" stroke-linecap="round"/>
<path d="M99 373.391C156.213 373.391 202.112 169.164 266 169.164C329.888 169.164 365.335 387.664 437 387.664C508.665 387.664 539.903 254.164 600 254.164C660.097 254.164 701.695 313.164 765.5 313.164C829.305 313.164 874.627 192.164 935.5 192.164C996.373 192.164 962.5 234.681 1023 234.681V387.664H437H99V373.391Z" fill="url(#paint0_linear_1_121)"/>
<path d="M100 330.332C157.26 330.332 198.676 253 267.818 253C329.567 253 373.747 362.81 437.088 362.81C509 362.81 541 227.956 601 227.956C661 227.956 706.729 362.81 768 362.81C845.784 362.81 870.977 150.836 937 150.836C996.761 150.836 966.5 275.5 1023.5 275.5" stroke="#FB7D5B" stroke-width="6" stroke-linecap="round"/>
<path d="M266.818 253C197.676 253 156.26 330.332 99 330.332V390H1022.5V275.5C965.5 275.5 995.761 150.836 936 150.836C869.977 150.836 844.784 362.81 767 362.81C705.729 362.81 660 227.956 600 227.956C540 227.956 508 362.81 436.088 362.81C372.747 362.81 328.567 253 266.818 253Z" fill="url(#paint1_linear_1_121)"/>
<path d="M600.912 217C605.901 217 609.825 221.096 609.825 226C609.825 230.904 605.901 235 600.912 235C595.924 235 592 230.904 592 226C592 221.096 595.924 217 600.912 217Z" fill="white" stroke="#FB7D5B" stroke-width="8"/>
<path d="M33.684 130.48V128.986H37.068V142H35.412V130.48H33.684ZM39.8816 135.358C39.8816 133.294 40.2176 131.686 40.8896 130.534C41.5616 129.37 42.7376 128.788 44.4176 128.788C46.0856 128.788 47.2556 129.37 47.9276 130.534C48.5996 131.686 48.9356 133.294 48.9356 135.358C48.9356 137.458 48.5996 139.09 47.9276 140.254C47.2556 141.418 46.0856 142 44.4176 142C42.7376 142 41.5616 141.418 40.8896 140.254C40.2176 139.09 39.8816 137.458 39.8816 135.358ZM47.3156 135.358C47.3156 134.314 47.2436 133.432 47.0996 132.712C46.9676 131.98 46.6856 131.392 46.2536 130.948C45.8336 130.504 45.2216 130.282 44.4176 130.282C43.6016 130.282 42.9776 130.504 42.5456 130.948C42.1256 131.392 41.8436 131.98 41.6996 132.712C41.5676 133.432 41.5016 134.314 41.5016 135.358C41.5016 136.438 41.5676 137.344 41.6996 138.076C41.8436 138.808 42.1256 139.396 42.5456 139.84C42.9776 140.284 43.6016 140.506 44.4176 140.506C45.2216 140.506 45.8336 140.284 46.2536 139.84C46.6856 139.396 46.9676 138.808 47.0996 138.076C47.2436 137.344 47.3156 136.438 47.3156 135.358ZM51.1844 135.358C51.1844 133.294 51.5204 131.686 52.1924 130.534C52.8644 129.37 54.0404 128.788 55.7204 128.788C57.3884 128.788 58.5584 129.37 59.2304 130.534C59.9024 131.686 60.2384 133.294 60.2384 135.358C60.2384 137.458 59.9024 139.09 59.2304 140.254C58.5584 141.418 57.3884 142 55.7204 142C54.0404 142 52.8644 141.418 52.1924 140.254C51.5204 139.09 51.1844 137.458 51.1844 135.358ZM58.6184 135.358C58.6184 134.314 58.5464 133.432 58.4024 132.712C58.2704 131.98 57.9884 131.392 57.5564 130.948C57.1364 130.504 56.5244 130.282 55.7204 130.282C54.9044 130.282 54.2804 130.504 53.8484 130.948C53.4284 131.392 53.1464 131.98 53.0024 132.712C52.8704 133.432 52.8044 134.314 52.8044 135.358C52.8044 136.438 52.8704 137.344 53.0024 138.076C53.1464 138.808 53.4284 139.396 53.8484 139.84C54.2804 140.284 54.9044 140.506 55.7204 140.506C56.5244 140.506 57.1364 140.284 57.5564 139.84C57.9884 139.396 58.2704 138.808 58.4024 138.076C58.5464 137.344 58.6184 136.438 58.6184 135.358Z" fill="#A098AE"/>
<path d="M42.126 189.264L37.122 201H35.466L40.542 189.426H33.594V188.022H42.126V189.264ZM52.2402 189.408H45.9222V193.512C46.1982 193.128 46.6062 192.816 47.1462 192.576C47.6862 192.324 48.2682 192.198 48.8922 192.198C49.8882 192.198 50.6982 192.408 51.3222 192.828C51.9462 193.236 52.3902 193.77 52.6542 194.43C52.9302 195.078 53.0682 195.768 53.0682 196.5C53.0682 197.364 52.9062 198.138 52.5822 198.822C52.2582 199.506 51.7602 200.046 51.0882 200.442C50.4282 200.838 49.6062 201.036 48.6222 201.036C47.3622 201.036 46.3422 200.712 45.5622 200.064C44.7822 199.416 44.3082 198.552 44.1402 197.472H45.7422C45.8982 198.156 46.2282 198.69 46.7322 199.074C47.2362 199.458 47.8722 199.65 48.6402 199.65C49.5882 199.65 50.3022 199.368 50.7822 198.804C51.2622 198.228 51.5022 197.472 51.5022 196.536C51.5022 195.6 51.2622 194.88 50.7822 194.376C50.3022 193.86 49.5942 193.602 48.6582 193.602C48.0222 193.602 47.4642 193.758 46.9842 194.07C46.5162 194.37 46.1742 194.784 45.9582 195.312H44.4102V187.968H52.2402V189.408Z" fill="#A098AE"/>
<path d="M42.414 248.408H36.096V252.512C36.372 252.128 36.78 251.816 37.32 251.576C37.86 251.324 38.442 251.198 39.066 251.198C40.062 251.198 40.872 251.408 41.496 251.828C42.12 252.236 42.564 252.77 42.828 253.43C43.104 254.078 43.242 254.768 43.242 255.5C43.242 256.364 43.08 257.138 42.756 257.822C42.432 258.506 41.934 259.046 41.262 259.442C40.602 259.838 39.78 260.036 38.796 260.036C37.536 260.036 36.516 259.712 35.736 259.064C34.956 258.416 34.482 257.552 34.314 256.472H35.916C36.072 257.156 36.402 257.69 36.906 258.074C37.41 258.458 38.046 258.65 38.814 258.65C39.762 258.65 40.476 258.368 40.956 257.804C41.436 257.228 41.676 256.472 41.676 255.536C41.676 254.6 41.436 253.88 40.956 253.376C40.476 252.86 39.768 252.602 38.832 252.602C38.196 252.602 37.638 252.758 37.158 253.07C36.69 253.37 36.348 253.784 36.132 254.312H34.584V246.968H42.414V248.408ZM45.4187 253.358C45.4187 251.294 45.7547 249.686 46.4267 248.534C47.0987 247.37 48.2747 246.788 49.9547 246.788C51.6227 246.788 52.7927 247.37 53.4647 248.534C54.1367 249.686 54.4727 251.294 54.4727 253.358C54.4727 255.458 54.1367 257.09 53.4647 258.254C52.7927 259.418 51.6227 260 49.9547 260C48.2747 260 47.0987 259.418 46.4267 258.254C45.7547 257.09 45.4187 255.458 45.4187 253.358ZM52.8527 253.358C52.8527 252.314 52.7807 251.432 52.6367 250.712C52.5047 249.98 52.2227 249.392 51.7907 248.948C51.3707 248.504 50.7587 248.282 49.9547 248.282C49.1387 248.282 48.5147 248.504 48.0827 248.948C47.6627 249.392 47.3807 249.98 47.2367 250.712C47.1047 251.432 47.0387 252.314 47.0387 253.358C47.0387 254.438 47.1047 255.344 47.2367 256.076C47.3807 256.808 47.6627 257.396 48.0827 257.84C48.5147 258.284 49.1387 258.506 49.9547 258.506C50.7587 258.506 51.3707 258.284 51.7907 257.84C52.2227 257.396 52.5047 256.808 52.6367 256.076C52.7807 255.344 52.8527 254.438 52.8527 253.358Z" fill="#A098AE"/>
<path d="M33.918 317.686C35.442 316.462 36.636 315.46 37.5 314.68C38.364 313.888 39.09 313.066 39.678 312.214C40.278 311.35 40.578 310.504 40.578 309.676C40.578 308.896 40.386 308.284 40.002 307.84C39.63 307.384 39.024 307.156 38.184 307.156C37.368 307.156 36.732 307.414 36.276 307.93C35.832 308.434 35.592 309.112 35.556 309.964H33.972C34.02 308.62 34.428 307.582 35.196 306.85C35.964 306.118 36.954 305.752 38.166 305.752C39.402 305.752 40.38 306.094 41.1 306.778C41.832 307.462 42.198 308.404 42.198 309.604C42.198 310.6 41.898 311.572 41.298 312.52C40.71 313.456 40.038 314.284 39.282 315.004C38.526 315.712 37.56 316.54 36.384 317.488H42.576V318.856H33.918V317.686ZM52.7675 307.408H46.4495V311.512C46.7255 311.128 47.1335 310.816 47.6735 310.576C48.2135 310.324 48.7955 310.198 49.4195 310.198C50.4155 310.198 51.2255 310.408 51.8495 310.828C52.4735 311.236 52.9175 311.77 53.1815 312.43C53.4575 313.078 53.5955 313.768 53.5955 314.5C53.5955 315.364 53.4335 316.138 53.1095 316.822C52.7855 317.506 52.2875 318.046 51.6155 318.442C50.9555 318.838 50.1335 319.036 49.1495 319.036C47.8895 319.036 46.8695 318.712 46.0895 318.064C45.3095 317.416 44.8355 316.552 44.6675 315.472H46.2695C46.4255 316.156 46.7555 316.69 47.2595 317.074C47.7635 317.458 48.3995 317.65 49.1675 317.65C50.1155 317.65 50.8295 317.368 51.3095 316.804C51.7895 316.228 52.0295 315.472 52.0295 314.536C52.0295 313.6 51.7895 312.88 51.3095 312.376C50.8295 311.86 50.1215 311.602 49.1855 311.602C48.5495 311.602 47.9915 311.758 47.5115 312.07C47.0435 312.37 46.7015 312.784 46.4855 313.312H44.9375V305.968H52.7675V307.408Z" fill="#A098AE"/>
<path d="M34.116 371.358C34.116 369.294 34.452 367.686 35.124 366.534C35.796 365.37 36.972 364.788 38.652 364.788C40.32 364.788 41.49 365.37 42.162 366.534C42.834 367.686 43.17 369.294 43.17 371.358C43.17 373.458 42.834 375.09 42.162 376.254C41.49 377.418 40.32 378 38.652 378C36.972 378 35.796 377.418 35.124 376.254C34.452 375.09 34.116 373.458 34.116 371.358ZM41.55 371.358C41.55 370.314 41.478 369.432 41.334 368.712C41.202 367.98 40.92 367.392 40.488 366.948C40.068 366.504 39.456 366.282 38.652 366.282C37.836 366.282 37.212 366.504 36.78 366.948C36.36 367.392 36.078 367.98 35.934 368.712C35.802 369.432 35.736 370.314 35.736 371.358C35.736 372.438 35.802 373.344 35.934 374.076C36.078 374.808 36.36 375.396 36.78 375.84C37.212 376.284 37.836 376.506 38.652 376.506C39.456 376.506 40.068 376.284 40.488 375.84C40.92 375.396 41.202 374.808 41.334 374.076C41.478 373.344 41.55 372.438 41.55 371.358Z" fill="#A098AE"/>
<defs>
<linearGradient id="paint0_linear_1_121" x1="561" y1="-359.5" x2="561" y2="387.664" gradientUnits="userSpaceOnUse">
<stop stop-color="#FCC43E"/>
<stop offset="1" stop-color="#FCC43E" stop-opacity="0"/>
</linearGradient>
<linearGradient id="paint1_linear_1_121" x1="560.75" y1="-430" x2="560.75" y2="390" gradientUnits="userSpaceOnUse">
<stop stop-color="#FB7D5B"/>
<stop offset="1" stop-color="#FB7D5B" stop-opacity="0"/>
</linearGradient>
</defs>
</svg>
