<svg width="38" height="40" viewBox="0 0 38 40" fill="none" xmlns="http://www.w3.org/2000/svg">
<path d="M35.2361 21.8435C32.9951 21.0315 30.5091 21.212 28.4072 22.3374L24.9807 23.8788C24.7038 22.3007 23.4918 21.1148 21.9958 21.0692C21.987 21.069 16.8582 21.0111 16.8582 21.0111C12.7531 19.885 10.0857 21.332 8.56409 22.7579C8.25289 23.0496 7.97922 23.3498 7.73836 23.646C7.32776 23.2038 6.60298 23.0856 6.07443 23.3762L1.41879 25.9354C0.814942 26.2674 0.552207 26.9956 0.805455 27.6358L5.35537 39.1377C5.65434 39.8934 6.57315 40.2274 7.29007 39.8333L11.9457 37.2742C12.3821 37.0343 12.639 36.5873 12.6531 36.1162H19.6017C20.7351 36.1162 21.8541 35.8185 22.8377 35.2553C22.8377 35.2553 35.9061 27.7589 35.9798 27.6919C37.8099 26.027 37.8663 22.7966 35.2361 21.8435C36.2853 22.2237 32.9951 21.0315 35.2361 21.8435ZM7.33169 36.688L3.79631 27.7508L6.03255 26.5216L9.56793 35.4588L7.33169 36.688ZM34.2311 25.5773L21.4743 32.8826C20.9049 33.2087 20.2573 33.381 19.6014 33.381H11.6914L9.03554 26.667C9.26306 26.2034 9.71118 25.4342 10.439 24.7522C11.9295 23.3555 13.8941 22.998 16.2786 23.6898C16.3978 23.7244 16.5213 23.7427 16.6454 23.7441L21.9175 23.8034C22.0521 23.815 22.3006 24.1143 22.3006 24.5679C22.3006 25.035 22.044 25.3327 21.9098 25.3327H16.7297V28.0679H21.9098C22.5515 28.0679 23.1487 27.8509 23.6458 27.4791L29.5774 24.8109C29.6089 24.7968 29.6396 24.7815 29.6699 24.765C31.0928 23.9914 32.781 23.8636 34.3014 24.4145C34.903 24.6327 34.4684 25.3364 34.2311 25.5773ZM25.9995 19.7079C20.5664 19.7079 16.1462 15.2874 16.1462 9.85393C16.1462 4.42051 20.5663 0 25.9995 0C31.4326 0 35.8527 4.42051 35.8527 9.85393C35.8527 15.2874 31.4325 19.7079 25.9995 19.7079ZM25.9995 2.73521C22.077 2.73521 18.8859 5.92863 18.8859 9.85393C18.8859 13.7792 22.0771 16.9727 25.9995 16.9727C29.922 16.9727 33.1131 13.7791 33.1131 9.85393C33.1131 5.92872 29.9219 2.73521 25.9995 2.73521Z" fill="#C1BBEB"/>
</svg>
