<svg width="40" height="40" viewBox="0 0 40 40" fill="none" xmlns="http://www.w3.org/2000/svg">
<path d="M14.2544 3.50921C11.9688 4.6423 10.0463 6.39319 8.70517 8.56331C7.36401 10.7334 6.65779 13.236 6.66659 15.787V21.7167C6.66764 22.5872 7.01391 23.4217 7.62942 24.0372C8.24494 24.6527 9.07945 24.999 9.94992 25H13.3333V35C13.3333 35.4421 13.5088 35.866 13.8214 36.1786C14.134 36.4911 14.5579 36.6667 14.9999 36.6667C15.4419 36.6667 15.8659 36.4911 16.1784 36.1786C16.491 35.866 16.6666 35.4421 16.6666 35V5.00004C16.6663 4.71602 16.5936 4.43677 16.4552 4.18876C16.3167 3.94074 16.1173 3.73219 15.8757 3.58287C15.6341 3.43355 15.3583 3.34841 15.0746 3.33552C14.7909 3.32263 14.5086 3.38241 14.2544 3.50921ZM13.3333 21.6834L9.99992 21.7167V15.787C9.99492 14.3526 10.2887 12.9328 10.8626 11.6181C11.4365 10.3034 12.2779 9.12265 13.3333 8.15104V21.6834ZM29.9999 5.00004V11.6667C29.9993 12.1086 29.8236 12.5321 29.5111 12.8446C29.1987 13.157 28.7751 13.3328 28.3333 13.3334V5.00004C28.3333 4.55801 28.1577 4.13409 27.8451 3.82153C27.5325 3.50897 27.1086 3.33337 26.6666 3.33337C26.2246 3.33337 25.8006 3.50897 25.4881 3.82153C25.1755 4.13409 24.9999 4.55801 24.9999 5.00004V13.3334C24.5581 13.3328 24.1345 13.157 23.822 12.8446C23.5096 12.5321 23.3338 12.1086 23.3333 11.6667V5.00004C23.3333 4.55801 23.1577 4.13409 22.8451 3.82153C22.5325 3.50897 22.1086 3.33337 21.6666 3.33337C21.2246 3.33337 20.8006 3.50897 20.4881 3.82153C20.1755 4.13409 19.9999 4.55801 19.9999 5.00004V11.6667C20.0014 12.9923 20.5286 14.2633 21.466 15.2006C22.4034 16.138 23.6743 16.6653 24.9999 16.6667V35C24.9999 35.4421 25.1755 35.866 25.4881 36.1786C25.8006 36.4911 26.2246 36.6667 26.6666 36.6667C27.1086 36.6667 27.5325 36.4911 27.8451 36.1786C28.1577 35.866 28.3333 35.4421 28.3333 35V16.6667C29.6589 16.6653 30.9298 16.138 31.8672 15.2006C32.8045 14.2633 33.3318 12.9923 33.3333 11.6667V5.00004C33.3333 4.55801 33.1577 4.13409 32.8451 3.82153C32.5325 3.50897 32.1086 3.33337 31.6666 3.33337C31.2246 3.33337 30.8006 3.50897 30.4881 3.82153C30.1755 4.13409 29.9999 4.55801 29.9999 5.00004Z" fill="#C1BBEB"/>
</svg>
