<svg width="30" height="38" viewBox="0 0 30 38" fill="none" xmlns="http://www.w3.org/2000/svg">
<path d="M21.176 9.87493C21.176 10.2187 21.1525 10.5624 21.1096 10.9023C21.1291 10.7656 21.1486 10.6249 21.1643 10.4882C21.0705 11.1679 20.8908 11.8281 20.6291 12.4609C20.6799 12.3359 20.7346 12.2109 20.7854 12.0859C20.5236 12.7031 20.1877 13.2812 19.7775 13.8124C19.8596 13.707 19.9416 13.6015 20.0236 13.496C19.6174 14.0195 19.1447 14.4921 18.6213 14.8984C18.7268 14.8163 18.8322 14.7343 18.9377 14.6523C18.4065 15.0585 17.8283 15.3984 17.2111 15.6601C17.3361 15.6093 17.4611 15.5546 17.5861 15.5038C16.9533 15.7656 16.2932 15.9452 15.6135 16.039C15.7502 16.0195 15.8908 15.9999 16.0275 15.9843C15.3439 16.0741 14.6564 16.0741 13.9729 15.9843C14.1096 16.0038 14.2502 16.0234 14.3869 16.039C13.7072 15.9452 13.0471 15.7656 12.4143 15.5038C12.5393 15.5546 12.6643 15.6093 12.7893 15.6601C12.1721 15.3984 11.5939 15.0624 11.0627 14.6523C11.1682 14.7343 11.2736 14.8163 11.3791 14.8984C10.8557 14.4921 10.383 14.0195 9.97675 13.496C10.0588 13.6015 10.1408 13.707 10.2228 13.8124C9.8166 13.2812 9.47675 12.7031 9.21504 12.0859C9.26582 12.2109 9.3205 12.3359 9.37129 12.4609C9.10957 11.8281 8.92988 11.1679 8.83613 10.4882C8.85566 10.6249 8.87519 10.7656 8.89082 10.9023C8.80097 10.2187 8.80097 9.53118 8.89082 8.84759C8.87129 8.98431 8.85175 9.12493 8.83613 9.26165C8.92988 8.58196 9.10957 7.92181 9.37129 7.28899C9.3205 7.41399 9.26582 7.53899 9.21504 7.66399C9.47675 7.04681 9.81269 6.46868 10.2228 5.93743C10.1408 6.0429 10.0588 6.14837 9.97675 6.25384C10.383 5.7304 10.8557 5.25774 11.3791 4.85149C11.2736 4.93352 11.1682 5.01556 11.0627 5.09759C11.5939 4.69134 12.1721 4.35149 12.7893 4.08977C12.6643 4.14056 12.5393 4.19524 12.4143 4.24602C13.0471 3.98431 13.7072 3.80462 14.3869 3.71087C14.2502 3.7304 14.1096 3.74993 13.9729 3.76556C14.6564 3.67571 15.3439 3.67571 16.0275 3.76556C15.8908 3.74602 15.7502 3.72649 15.6135 3.71087C16.2932 3.80462 16.9533 3.98431 17.5861 4.24602C17.4611 4.19524 17.3361 4.14056 17.2111 4.08977C17.8283 4.35149 18.4065 4.68743 18.9377 5.09759C18.8322 5.01556 18.7268 4.93352 18.6213 4.85149C19.1447 5.25774 19.6174 5.7304 20.0236 6.25384C19.9416 6.14837 19.8596 6.0429 19.7775 5.93743C20.1838 6.46868 20.5236 7.04681 20.7854 7.66399C20.7346 7.53899 20.6799 7.41399 20.6291 7.28899C20.8908 7.92181 21.0705 8.58196 21.1643 9.26165C21.1447 9.12493 21.1252 8.98431 21.1096 8.84759C21.1525 9.18743 21.1721 9.53118 21.176 9.87493C21.1799 10.6913 21.8908 11.4765 22.7385 11.4374C23.5822 11.3984 24.3049 10.7499 24.301 9.87493C24.2932 8.00384 23.7307 6.08977 22.6291 4.56634C22.3322 4.15618 22.0158 3.75384 21.6643 3.39056C21.3088 3.02337 20.9182 2.70696 20.5119 2.39837C19.7736 1.83587 18.9494 1.42181 18.0744 1.10149C14.5471 -0.191475 10.2932 0.960868 7.90644 3.86712C7.57831 4.26556 7.26582 4.67962 7.00019 5.12493C6.73456 5.56634 6.52753 6.03509 6.33613 6.51165C5.97675 7.39446 5.79316 8.33196 5.71894 9.28118C5.57441 11.1406 6.05878 13.082 7.02753 14.6757C7.96113 16.2148 9.37129 17.5351 11.0197 18.2812C11.5041 18.4999 12.0002 18.7031 12.5158 18.8476C13.0275 18.9882 13.5471 19.0663 14.0744 19.1288C15.0354 19.2421 16.0158 19.164 16.965 18.9726C20.5705 18.2382 23.59 15.1327 24.1486 11.4882C24.2307 10.957 24.2932 10.4257 24.2932 9.88665C24.2971 9.07024 23.5705 8.28509 22.7307 8.32415C21.8869 8.35149 21.176 8.99993 21.176 9.87493ZM26.3596 34.3007C25.594 34.3007 24.8283 34.3007 24.0627 34.3007C22.2385 34.3007 20.4182 34.3007 18.594 34.3007C16.3986 34.3007 14.2033 34.3007 12.0041 34.3007C10.1096 34.3007 8.21503 34.3007 6.3166 34.3007C5.42988 34.3007 4.54316 34.3085 3.65644 34.3007C3.55878 34.3007 3.46112 34.2929 3.36737 34.2812C3.50409 34.3007 3.64472 34.3202 3.78144 34.3359C3.62519 34.3124 3.47675 34.2695 3.33222 34.2109C3.45722 34.2617 3.58222 34.3163 3.70722 34.3671C3.55097 34.3007 3.40644 34.2148 3.26972 34.1093C3.37519 34.1913 3.48065 34.2734 3.58612 34.3554C3.46894 34.2577 3.35956 34.1523 3.26581 34.0351C3.34784 34.1406 3.42987 34.246 3.5119 34.3515C3.40644 34.2148 3.3244 34.0702 3.25409 33.914C3.30487 34.039 3.35956 34.164 3.41034 34.289C3.35175 34.1445 3.31269 33.9921 3.28534 33.8398C3.30487 33.9765 3.3244 34.1171 3.34003 34.2538C3.27753 33.7812 3.3205 33.2812 3.3205 32.8046C3.3205 32.246 3.3205 31.6913 3.3205 31.1327C3.3205 30.7148 3.34394 30.3007 3.39862 29.8867C3.37909 30.0234 3.35956 30.164 3.34394 30.3007C3.45331 29.4999 3.66425 28.7148 3.98065 27.9687C3.92987 28.0937 3.87519 28.2187 3.8244 28.3437C4.12909 27.6327 4.51972 26.9648 4.99237 26.3515C4.91034 26.457 4.82831 26.5624 4.74628 26.6679C5.21894 26.0624 5.76191 25.5156 6.37128 25.0429C6.26581 25.1249 6.16034 25.207 6.05488 25.289C6.66816 24.8163 7.33613 24.4257 8.04707 24.121C7.92207 24.1718 7.79706 24.2265 7.67206 24.2773C8.41816 23.9648 9.19941 23.7499 10.0041 23.6406C9.86738 23.6601 9.72675 23.6796 9.59004 23.6952C10.1682 23.621 10.7424 23.6171 11.3244 23.6171C12.0393 23.6171 12.7541 23.6171 13.4689 23.6171C15.1369 23.6171 16.8049 23.6171 18.4729 23.6171C19.1174 23.6171 19.758 23.6132 20.4025 23.6952C20.2658 23.6757 20.1252 23.6562 19.9885 23.6406C20.7893 23.7499 21.5744 23.9609 22.3205 24.2773C22.1955 24.2265 22.0705 24.1718 21.9455 24.121C22.6565 24.4257 23.3244 24.8163 23.9377 25.289C23.8322 25.207 23.7268 25.1249 23.6213 25.0429C24.2268 25.5156 24.7736 26.0585 25.2463 26.6679C25.1643 26.5624 25.0822 26.457 25.0002 26.3515C25.4729 26.9648 25.8635 27.6327 26.1682 28.3437C26.1174 28.2187 26.0627 28.0937 26.0119 27.9687C26.3244 28.7148 26.5393 29.496 26.6486 30.3007C26.6291 30.164 26.6096 30.0234 26.594 29.8867C26.6682 30.4765 26.6721 31.0624 26.6721 31.6562C26.6721 32.3007 26.6721 32.9452 26.6721 33.5898C26.6721 33.8124 26.6799 34.0351 26.6525 34.2538C26.6721 34.1171 26.6916 33.9765 26.7072 33.8398C26.6838 33.996 26.6408 34.1445 26.5822 34.289C26.633 34.164 26.6877 34.039 26.7385 33.914C26.6721 34.0702 26.5861 34.2148 26.4807 34.3515C26.5627 34.246 26.6447 34.1406 26.7268 34.0351C26.6291 34.1523 26.5236 34.2616 26.4065 34.3554C26.5119 34.2734 26.6174 34.1913 26.7229 34.1093C26.5861 34.2148 26.4416 34.2968 26.2854 34.3671C26.4104 34.3163 26.5354 34.2617 26.6604 34.2109C26.5158 34.2695 26.3635 34.3085 26.2111 34.3359C26.3479 34.3163 26.4885 34.2968 26.6252 34.2812C26.5393 34.2929 26.4494 34.2968 26.3596 34.3007C25.9572 34.3046 25.5432 34.4726 25.2541 34.7577C24.9846 35.0273 24.7775 35.4726 24.7971 35.8632C24.8361 36.6992 25.4846 37.4374 26.3596 37.4257C27.8791 37.4023 29.2151 36.4101 29.6604 34.9531C29.8361 34.3749 29.7971 33.7538 29.7971 33.1601C29.7971 31.8007 29.8401 30.4531 29.6057 29.1054C29.2619 27.1327 28.2697 25.2773 26.9104 23.8202C25.551 22.3632 23.7229 21.2929 21.7893 20.8163C20.6799 20.5429 19.5627 20.4999 18.4299 20.4999C17.2658 20.4999 16.1057 20.4999 14.9416 20.4999C13.7932 20.4999 12.6486 20.4999 11.5002 20.4999C10.34 20.4999 9.18769 20.5546 8.05878 20.8554C6.14081 21.3632 4.33612 22.4452 3.00409 23.914C1.66034 25.3945 0.687683 27.2538 0.371277 29.2382C0.160339 30.5702 0.203308 31.9062 0.203308 33.2499C0.203308 33.8671 0.168151 34.5117 0.390808 35.1015C0.679871 35.8593 1.14081 36.457 1.81659 36.9062C2.34393 37.2538 3.0119 37.4218 3.6369 37.4296C3.94159 37.4335 4.24628 37.4296 4.55097 37.4296C5.33222 37.4296 6.10956 37.4296 6.89081 37.4296C8.00019 37.4296 9.10566 37.4296 10.215 37.4296C11.5041 37.4296 12.7932 37.4296 14.0822 37.4296C15.4064 37.4296 16.7268 37.4296 18.051 37.4296C19.2619 37.4296 20.469 37.4296 21.6799 37.4296C22.6291 37.4296 23.5783 37.4296 24.5236 37.4296C25.0666 37.4296 25.6096 37.4296 26.1525 37.4296C26.2229 37.4296 26.2932 37.4296 26.3635 37.4296C27.1799 37.4296 27.9651 36.7109 27.926 35.8671C27.8869 35.0156 27.2385 34.3007 26.3596 34.3007Z" fill="#C1BBEB"/>
</svg>
